<svg width="18" height="16" viewBox="0 0 18 16" fill="none" xmlns="http://www.w3.org/2000/svg">
<path fill-rule="evenodd" clip-rule="evenodd" d="M2.56165 7.16679H17.2501C17.6642 7.16679 18 7.53984 18 8.00001C18 8.46018 17.6642 8.83323 17.2501 8.83323H2.56165L7.2818 14.0758C7.57504 14.4016 7.57504 14.9298 7.2818 15.2556C6.98856 15.5814 6.51312 15.5814 6.21988 15.2556L0.220324 8.58993C0.0792722 8.43361 0 8.22136 0 8.00001C0 7.77866 0.0792722 7.56641 0.220324 7.41009L6.21988 0.74437C6.40957 0.533614 6.68606 0.451304 6.94518 0.528446C7.20431 0.605588 7.40671 0.830463 7.47614 1.11836C7.54558 1.40626 7.47149 1.71345 7.2818 1.9242L2.56165 7.16679Z" fill="#606160"/>
</svg>
