<svg width="438" height="252" viewBox="0 0 438 252" fill="none" xmlns="http://www.w3.org/2000/svg">
<rect x="0.5" y="0.5" width="437" height="251" rx="7.5" stroke="#EDEDED"/>
<g clip-path="url(#clip0_14_3061)">
<path d="M57 104.5C57 103.395 57.8954 102.5 59 102.5H91C92.1046 102.5 93 103.395 93 104.5V210.5H57V104.5Z" fill="#606160"/>
<path d="M62.944 118.5V117.684L66.364 114.384C66.668 114.096 66.892 113.844 67.036 113.628C67.188 113.404 67.288 113.2 67.336 113.016C67.392 112.824 67.42 112.64 67.42 112.464C67.42 112.032 67.268 111.692 66.964 111.444C66.66 111.196 66.216 111.072 65.632 111.072C65.184 111.072 64.78 111.148 64.42 111.3C64.06 111.444 63.748 111.672 63.484 111.984L62.668 111.276C62.988 110.868 63.416 110.556 63.952 110.34C64.496 110.116 65.092 110.004 65.74 110.004C66.324 110.004 66.832 110.1 67.264 110.292C67.696 110.476 68.028 110.744 68.26 111.096C68.5 111.448 68.62 111.864 68.62 112.344C68.62 112.616 68.584 112.884 68.512 113.148C68.44 113.412 68.304 113.692 68.104 113.988C67.904 114.284 67.616 114.616 67.24 114.984L64.192 117.924L63.904 117.456H68.98V118.5H62.944ZM69.9846 118.5V117.684L73.4046 114.384C73.7086 114.096 73.9326 113.844 74.0766 113.628C74.2286 113.404 74.3286 113.2 74.3766 113.016C74.4326 112.824 74.4606 112.64 74.4606 112.464C74.4606 112.032 74.3086 111.692 74.0046 111.444C73.7006 111.196 73.2566 111.072 72.6726 111.072C72.2246 111.072 71.8206 111.148 71.4606 111.3C71.1006 111.444 70.7886 111.672 70.5246 111.984L69.7086 111.276C70.0286 110.868 70.4566 110.556 70.9926 110.34C71.5366 110.116 72.1326 110.004 72.7806 110.004C73.3646 110.004 73.8726 110.1 74.3046 110.292C74.7366 110.476 75.0686 110.744 75.3006 111.096C75.5406 111.448 75.6606 111.864 75.6606 112.344C75.6606 112.616 75.6246 112.884 75.5526 113.148C75.4806 113.412 75.3446 113.692 75.1446 113.988C74.9446 114.284 74.6566 114.616 74.2806 114.984L71.2326 117.924L70.9446 117.456H76.0206V118.5H69.9846ZM78.4264 118.5L84.1624 110.1H85.0864L79.3504 118.5H78.4264ZM79.0984 114.612C78.7144 114.612 78.3744 114.516 78.0784 114.324C77.7824 114.132 77.5504 113.864 77.3824 113.52C77.2224 113.176 77.1424 112.776 77.1424 112.32C77.1424 111.864 77.2224 111.464 77.3824 111.12C77.5504 110.776 77.7824 110.508 78.0784 110.316C78.3744 110.124 78.7144 110.028 79.0984 110.028C79.4904 110.028 79.8304 110.124 80.1184 110.316C80.4144 110.508 80.6424 110.776 80.8024 111.12C80.9624 111.464 81.0424 111.864 81.0424 112.32C81.0424 112.776 80.9624 113.176 80.8024 113.52C80.6424 113.864 80.4144 114.132 80.1184 114.324C79.8304 114.516 79.4904 114.612 79.0984 114.612ZM79.0984 113.928C79.4664 113.928 79.7544 113.788 79.9624 113.508C80.1704 113.22 80.2744 112.824 80.2744 112.32C80.2744 111.816 80.1704 111.424 79.9624 111.144C79.7544 110.856 79.4664 110.712 79.0984 110.712C78.7384 110.712 78.4504 110.856 78.2344 111.144C78.0264 111.424 77.9224 111.816 77.9224 112.32C77.9224 112.816 78.0264 113.208 78.2344 113.496C78.4504 113.784 78.7384 113.928 79.0984 113.928ZM84.4144 118.572C84.0304 118.572 83.6904 118.476 83.3944 118.284C83.0984 118.092 82.8704 117.824 82.7104 117.48C82.5504 117.136 82.4704 116.736 82.4704 116.28C82.4704 115.824 82.5504 115.424 82.7104 115.08C82.8704 114.736 83.0984 114.468 83.3944 114.276C83.6904 114.084 84.0304 113.988 84.4144 113.988C84.8064 113.988 85.1464 114.084 85.4344 114.276C85.7304 114.468 85.9584 114.736 86.1184 115.08C86.2864 115.424 86.3704 115.824 86.3704 116.28C86.3704 116.736 86.2864 117.136 86.1184 117.48C85.9584 117.824 85.7304 118.092 85.4344 118.284C85.1464 118.476 84.8064 118.572 84.4144 118.572ZM84.4144 117.888C84.7744 117.888 85.0584 117.748 85.2664 117.468C85.4824 117.18 85.5904 116.784 85.5904 116.28C85.5904 115.784 85.4824 115.392 85.2664 115.104C85.0584 114.816 84.7744 114.672 84.4144 114.672C84.0544 114.672 83.7664 114.816 83.5504 115.104C83.3424 115.384 83.2384 115.776 83.2384 116.28C83.2384 116.784 83.3424 117.18 83.5504 117.468C83.7664 117.748 84.0544 117.888 84.4144 117.888Z" fill="white"/>
</g>
<g clip-path="url(#clip1_14_3061)">
<path d="M153 86.5C153 85.3954 153.895 84.5 155 84.5H187C188.105 84.5 189 85.3954 189 86.5V210.5H153V86.5Z" fill="#606160"/>
<path d="M158.944 100.5V99.684L162.364 96.384C162.668 96.096 162.892 95.844 163.036 95.628C163.188 95.404 163.288 95.2 163.336 95.016C163.392 94.824 163.42 94.64 163.42 94.464C163.42 94.032 163.268 93.692 162.964 93.444C162.66 93.196 162.216 93.072 161.632 93.072C161.184 93.072 160.78 93.148 160.42 93.3C160.06 93.444 159.748 93.672 159.484 93.984L158.668 93.276C158.988 92.868 159.416 92.556 159.952 92.34C160.496 92.116 161.092 92.004 161.74 92.004C162.324 92.004 162.832 92.1 163.264 92.292C163.696 92.476 164.028 92.744 164.26 93.096C164.5 93.448 164.62 93.864 164.62 94.344C164.62 94.616 164.584 94.884 164.512 95.148C164.44 95.412 164.304 95.692 164.104 95.988C163.904 96.284 163.616 96.616 163.24 96.984L160.192 99.924L159.904 99.456H164.98V100.5H158.944ZM168.829 100.596C168.237 100.596 167.661 100.504 167.101 100.32C166.549 100.136 166.097 99.888 165.745 99.576L166.297 98.628C166.577 98.892 166.941 99.108 167.389 99.276C167.837 99.444 168.313 99.528 168.817 99.528C169.457 99.528 169.949 99.392 170.293 99.12C170.637 98.848 170.809 98.484 170.809 98.028C170.809 97.716 170.733 97.444 170.581 97.212C170.429 96.98 170.165 96.804 169.789 96.684C169.421 96.556 168.913 96.492 168.265 96.492H166.357L166.801 92.1H171.541V93.144H167.245L167.869 92.556L167.521 96.024L166.897 95.448H168.517C169.357 95.448 170.033 95.556 170.545 95.772C171.057 95.988 171.429 96.288 171.661 96.672C171.893 97.048 172.009 97.484 172.009 97.98C172.009 98.46 171.893 98.9 171.661 99.3C171.429 99.692 171.077 100.008 170.605 100.248C170.141 100.48 169.549 100.596 168.829 100.596ZM174.192 100.5L179.928 92.1H180.852L175.116 100.5H174.192ZM174.864 96.612C174.48 96.612 174.14 96.516 173.844 96.324C173.548 96.132 173.316 95.864 173.148 95.52C172.988 95.176 172.908 94.776 172.908 94.32C172.908 93.864 172.988 93.464 173.148 93.12C173.316 92.776 173.548 92.508 173.844 92.316C174.14 92.124 174.48 92.028 174.864 92.028C175.256 92.028 175.596 92.124 175.884 92.316C176.18 92.508 176.408 92.776 176.568 93.12C176.728 93.464 176.808 93.864 176.808 94.32C176.808 94.776 176.728 95.176 176.568 95.52C176.408 95.864 176.18 96.132 175.884 96.324C175.596 96.516 175.256 96.612 174.864 96.612ZM174.864 95.928C175.232 95.928 175.52 95.788 175.728 95.508C175.936 95.22 176.04 94.824 176.04 94.32C176.04 93.816 175.936 93.424 175.728 93.144C175.52 92.856 175.232 92.712 174.864 92.712C174.504 92.712 174.216 92.856 174 93.144C173.792 93.424 173.688 93.816 173.688 94.32C173.688 94.816 173.792 95.208 174 95.496C174.216 95.784 174.504 95.928 174.864 95.928ZM180.18 100.572C179.796 100.572 179.456 100.476 179.16 100.284C178.864 100.092 178.636 99.824 178.476 99.48C178.316 99.136 178.236 98.736 178.236 98.28C178.236 97.824 178.316 97.424 178.476 97.08C178.636 96.736 178.864 96.468 179.16 96.276C179.456 96.084 179.796 95.988 180.18 95.988C180.572 95.988 180.912 96.084 181.2 96.276C181.496 96.468 181.724 96.736 181.884 97.08C182.052 97.424 182.136 97.824 182.136 98.28C182.136 98.736 182.052 99.136 181.884 99.48C181.724 99.824 181.496 100.092 181.2 100.284C180.912 100.476 180.572 100.572 180.18 100.572ZM180.18 99.888C180.54 99.888 180.824 99.748 181.032 99.468C181.248 99.18 181.356 98.784 181.356 98.28C181.356 97.784 181.248 97.392 181.032 97.104C180.824 96.816 180.54 96.672 180.18 96.672C179.82 96.672 179.532 96.816 179.316 97.104C179.108 97.384 179.004 97.776 179.004 98.28C179.004 98.784 179.108 99.18 179.316 99.468C179.532 99.748 179.82 99.888 180.18 99.888Z" fill="white"/>
</g>
<g clip-path="url(#clip2_14_3061)">
<path d="M249 62.5C249 61.3954 249.895 60.5 251 60.5H283C284.105 60.5 285 61.3954 285 62.5V210.5H249V62.5Z" fill="#606160"/>
<path d="M257.144 76.596C256.552 76.596 255.976 76.504 255.416 76.32C254.864 76.136 254.412 75.888 254.06 75.576L254.612 74.628C254.892 74.892 255.256 75.108 255.704 75.276C256.152 75.444 256.632 75.528 257.144 75.528C257.768 75.528 258.252 75.396 258.596 75.132C258.948 74.86 259.124 74.496 259.124 74.04C259.124 73.6 258.956 73.248 258.62 72.984C258.292 72.712 257.768 72.576 257.048 72.576H256.376V71.736L258.872 68.664L259.04 69.144H254.444V68.1H259.988V68.916L257.504 71.976L256.88 71.604H257.276C258.292 71.604 259.052 71.832 259.556 72.288C260.068 72.744 260.324 73.324 260.324 74.028C260.324 74.5 260.208 74.932 259.976 75.324C259.744 75.716 259.392 76.028 258.92 76.26C258.456 76.484 257.864 76.596 257.144 76.596ZM265.025 76.596C264.369 76.596 263.781 76.428 263.261 76.092C262.749 75.756 262.341 75.268 262.037 74.628C261.741 73.988 261.593 73.212 261.593 72.3C261.593 71.388 261.741 70.612 262.037 69.972C262.341 69.332 262.749 68.844 263.261 68.508C263.781 68.172 264.369 68.004 265.025 68.004C265.673 68.004 266.257 68.172 266.777 68.508C267.297 68.844 267.705 69.332 268.001 69.972C268.297 70.612 268.445 71.388 268.445 72.3C268.445 73.212 268.297 73.988 268.001 74.628C267.705 75.268 267.297 75.756 266.777 76.092C266.257 76.428 265.673 76.596 265.025 76.596ZM265.025 75.528C265.465 75.528 265.849 75.408 266.177 75.168C266.513 74.928 266.773 74.568 266.957 74.088C267.149 73.608 267.245 73.012 267.245 72.3C267.245 71.588 267.149 70.992 266.957 70.512C266.773 70.032 266.513 69.672 266.177 69.432C265.849 69.192 265.465 69.072 265.025 69.072C264.585 69.072 264.197 69.192 263.861 69.432C263.525 69.672 263.261 70.032 263.069 70.512C262.885 70.992 262.793 71.588 262.793 72.3C262.793 73.012 262.885 73.608 263.069 74.088C263.261 74.568 263.525 74.928 263.861 75.168C264.197 75.408 264.585 75.528 265.025 75.528ZM270.899 76.5L276.635 68.1H277.559L271.823 76.5H270.899ZM271.571 72.612C271.187 72.612 270.847 72.516 270.551 72.324C270.255 72.132 270.023 71.864 269.855 71.52C269.695 71.176 269.615 70.776 269.615 70.32C269.615 69.864 269.695 69.464 269.855 69.12C270.023 68.776 270.255 68.508 270.551 68.316C270.847 68.124 271.187 68.028 271.571 68.028C271.963 68.028 272.303 68.124 272.591 68.316C272.887 68.508 273.115 68.776 273.275 69.12C273.435 69.464 273.515 69.864 273.515 70.32C273.515 70.776 273.435 71.176 273.275 71.52C273.115 71.864 272.887 72.132 272.591 72.324C272.303 72.516 271.963 72.612 271.571 72.612ZM271.571 71.928C271.939 71.928 272.227 71.788 272.435 71.508C272.643 71.22 272.747 70.824 272.747 70.32C272.747 69.816 272.643 69.424 272.435 69.144C272.227 68.856 271.939 68.712 271.571 68.712C271.211 68.712 270.923 68.856 270.707 69.144C270.499 69.424 270.395 69.816 270.395 70.32C270.395 70.816 270.499 71.208 270.707 71.496C270.923 71.784 271.211 71.928 271.571 71.928ZM276.887 76.572C276.503 76.572 276.163 76.476 275.867 76.284C275.571 76.092 275.343 75.824 275.183 75.48C275.023 75.136 274.943 74.736 274.943 74.28C274.943 73.824 275.023 73.424 275.183 73.08C275.343 72.736 275.571 72.468 275.867 72.276C276.163 72.084 276.503 71.988 276.887 71.988C277.279 71.988 277.619 72.084 277.907 72.276C278.203 72.468 278.431 72.736 278.591 73.08C278.759 73.424 278.843 73.824 278.843 74.28C278.843 74.736 278.759 75.136 278.591 75.48C278.431 75.824 278.203 76.092 277.907 76.284C277.619 76.476 277.279 76.572 276.887 76.572ZM276.887 75.888C277.247 75.888 277.531 75.748 277.739 75.468C277.955 75.18 278.063 74.784 278.063 74.28C278.063 73.784 277.955 73.392 277.739 73.104C277.531 72.816 277.247 72.672 276.887 72.672C276.527 72.672 276.239 72.816 276.023 73.104C275.815 73.384 275.711 73.776 275.711 74.28C275.711 74.784 275.815 75.18 276.023 75.468C276.239 75.748 276.527 75.888 276.887 75.888Z" fill="white"/>
</g>
<g clip-path="url(#clip3_14_3061)">
<path d="M345 15.5C345 14.3954 345.895 13.5 347 13.5H379C380.105 13.5 381 14.3954 381 15.5V210.5H345V15.5Z" fill="#606160"/>
<path d="M349.956 27.436V26.596L354.252 21.1H355.548L351.288 26.596L350.676 26.404H357.384V27.436H349.956ZM354.624 29.5V27.436L354.66 26.404V24.58H355.788V29.5H354.624ZM361.685 29.596C361.029 29.596 360.441 29.428 359.921 29.092C359.409 28.756 359.001 28.268 358.697 27.628C358.401 26.988 358.253 26.212 358.253 25.3C358.253 24.388 358.401 23.612 358.697 22.972C359.001 22.332 359.409 21.844 359.921 21.508C360.441 21.172 361.029 21.004 361.685 21.004C362.333 21.004 362.917 21.172 363.437 21.508C363.957 21.844 364.365 22.332 364.661 22.972C364.957 23.612 365.105 24.388 365.105 25.3C365.105 26.212 364.957 26.988 364.661 27.628C364.365 28.268 363.957 28.756 363.437 29.092C362.917 29.428 362.333 29.596 361.685 29.596ZM361.685 28.528C362.125 28.528 362.509 28.408 362.837 28.168C363.173 27.928 363.433 27.568 363.617 27.088C363.809 26.608 363.905 26.012 363.905 25.3C363.905 24.588 363.809 23.992 363.617 23.512C363.433 23.032 363.173 22.672 362.837 22.432C362.509 22.192 362.125 22.072 361.685 22.072C361.245 22.072 360.857 22.192 360.521 22.432C360.185 22.672 359.921 23.032 359.729 23.512C359.545 23.992 359.453 24.588 359.453 25.3C359.453 26.012 359.545 26.608 359.729 27.088C359.921 27.568 360.185 27.928 360.521 28.168C360.857 28.408 361.245 28.528 361.685 28.528ZM367.559 29.5L373.295 21.1H374.219L368.483 29.5H367.559ZM368.231 25.612C367.847 25.612 367.507 25.516 367.211 25.324C366.915 25.132 366.683 24.864 366.515 24.52C366.355 24.176 366.275 23.776 366.275 23.32C366.275 22.864 366.355 22.464 366.515 22.12C366.683 21.776 366.915 21.508 367.211 21.316C367.507 21.124 367.847 21.028 368.231 21.028C368.623 21.028 368.963 21.124 369.251 21.316C369.547 21.508 369.775 21.776 369.935 22.12C370.095 22.464 370.175 22.864 370.175 23.32C370.175 23.776 370.095 24.176 369.935 24.52C369.775 24.864 369.547 25.132 369.251 25.324C368.963 25.516 368.623 25.612 368.231 25.612ZM368.231 24.928C368.599 24.928 368.887 24.788 369.095 24.508C369.303 24.22 369.407 23.824 369.407 23.32C369.407 22.816 369.303 22.424 369.095 22.144C368.887 21.856 368.599 21.712 368.231 21.712C367.871 21.712 367.583 21.856 367.367 22.144C367.159 22.424 367.055 22.816 367.055 23.32C367.055 23.816 367.159 24.208 367.367 24.496C367.583 24.784 367.871 24.928 368.231 24.928ZM373.547 29.572C373.163 29.572 372.823 29.476 372.527 29.284C372.231 29.092 372.003 28.824 371.843 28.48C371.683 28.136 371.603 27.736 371.603 27.28C371.603 26.824 371.683 26.424 371.843 26.08C372.003 25.736 372.231 25.468 372.527 25.276C372.823 25.084 373.163 24.988 373.547 24.988C373.939 24.988 374.279 25.084 374.567 25.276C374.863 25.468 375.091 25.736 375.251 26.08C375.419 26.424 375.503 26.824 375.503 27.28C375.503 27.736 375.419 28.136 375.251 28.48C375.091 28.824 374.863 29.092 374.567 29.284C374.279 29.476 373.939 29.572 373.547 29.572ZM373.547 28.888C373.907 28.888 374.191 28.748 374.399 28.468C374.615 28.18 374.723 27.784 374.723 27.28C374.723 26.784 374.615 26.392 374.399 26.104C374.191 25.816 373.907 25.672 373.547 25.672C373.187 25.672 372.899 25.816 372.683 26.104C372.475 26.384 372.371 26.776 372.371 27.28C372.371 27.784 372.475 28.18 372.683 28.468C372.899 28.748 373.187 28.888 373.547 28.888Z" fill="white"/>
</g>
<path d="M72.54 230.572C71.908 230.572 71.32 230.468 70.776 230.26C70.24 230.044 69.772 229.744 69.372 229.36C68.98 228.968 68.672 228.516 68.448 228.004C68.232 227.484 68.124 226.916 68.124 226.3C68.124 225.684 68.232 225.12 68.448 224.608C68.672 224.088 68.98 223.636 69.372 223.252C69.772 222.86 70.24 222.56 70.776 222.352C71.312 222.136 71.9 222.028 72.54 222.028C73.172 222.028 73.756 222.136 74.292 222.352C74.828 222.56 75.292 222.856 75.684 223.24C76.084 223.624 76.392 224.076 76.608 224.596C76.832 225.116 76.944 225.684 76.944 226.3C76.944 226.916 76.832 227.484 76.608 228.004C76.392 228.524 76.084 228.976 75.684 229.36C75.292 229.744 74.828 230.044 74.292 230.26C73.756 230.468 73.172 230.572 72.54 230.572ZM75.288 232.168C75.032 232.168 74.784 232.136 74.544 232.072C74.304 232.008 74.06 231.904 73.812 231.76C73.572 231.624 73.324 231.444 73.068 231.22C72.812 230.996 72.532 230.724 72.228 230.404L73.2 230.164C73.448 230.46 73.688 230.704 73.92 230.896C74.16 231.088 74.392 231.228 74.616 231.316C74.848 231.412 75.076 231.46 75.3 231.46C75.924 231.46 76.456 231.204 76.896 230.692L77.328 231.208C76.8 231.848 76.12 232.168 75.288 232.168ZM72.54 229.78C73.044 229.78 73.508 229.696 73.932 229.528C74.364 229.352 74.736 229.104 75.048 228.784C75.368 228.464 75.616 228.096 75.792 227.68C75.968 227.256 76.056 226.796 76.056 226.3C76.056 225.796 75.968 225.336 75.792 224.92C75.616 224.496 75.368 224.128 75.048 223.816C74.736 223.496 74.364 223.252 73.932 223.084C73.508 222.908 73.044 222.82 72.54 222.82C72.036 222.82 71.568 222.908 71.136 223.084C70.704 223.252 70.328 223.496 70.008 223.816C69.696 224.128 69.448 224.496 69.264 224.92C69.088 225.336 69 225.796 69 226.3C69 226.796 69.088 227.256 69.264 227.68C69.448 228.096 69.696 228.464 70.008 228.784C70.328 229.104 70.704 229.352 71.136 229.528C71.568 229.696 72.036 229.78 72.54 229.78ZM79.6872 230.5V222.46L80.0712 222.868H77.7072V222.1H80.5512V230.5H79.6872Z" fill="#606160"/>
<path d="M167.54 230.572C166.908 230.572 166.32 230.468 165.776 230.26C165.24 230.044 164.772 229.744 164.372 229.36C163.98 228.968 163.672 228.516 163.448 228.004C163.232 227.484 163.124 226.916 163.124 226.3C163.124 225.684 163.232 225.12 163.448 224.608C163.672 224.088 163.98 223.636 164.372 223.252C164.772 222.86 165.24 222.56 165.776 222.352C166.312 222.136 166.9 222.028 167.54 222.028C168.172 222.028 168.756 222.136 169.292 222.352C169.828 222.56 170.292 222.856 170.684 223.24C171.084 223.624 171.392 224.076 171.608 224.596C171.832 225.116 171.944 225.684 171.944 226.3C171.944 226.916 171.832 227.484 171.608 228.004C171.392 228.524 171.084 228.976 170.684 229.36C170.292 229.744 169.828 230.044 169.292 230.26C168.756 230.468 168.172 230.572 167.54 230.572ZM170.288 232.168C170.032 232.168 169.784 232.136 169.544 232.072C169.304 232.008 169.06 231.904 168.812 231.76C168.572 231.624 168.324 231.444 168.068 231.22C167.812 230.996 167.532 230.724 167.228 230.404L168.2 230.164C168.448 230.46 168.688 230.704 168.92 230.896C169.16 231.088 169.392 231.228 169.616 231.316C169.848 231.412 170.076 231.46 170.3 231.46C170.924 231.46 171.456 231.204 171.896 230.692L172.328 231.208C171.8 231.848 171.12 232.168 170.288 232.168ZM167.54 229.78C168.044 229.78 168.508 229.696 168.932 229.528C169.364 229.352 169.736 229.104 170.048 228.784C170.368 228.464 170.616 228.096 170.792 227.68C170.968 227.256 171.056 226.796 171.056 226.3C171.056 225.796 170.968 225.336 170.792 224.92C170.616 224.496 170.368 224.128 170.048 223.816C169.736 223.496 169.364 223.252 168.932 223.084C168.508 222.908 168.044 222.82 167.54 222.82C167.036 222.82 166.568 222.908 166.136 223.084C165.704 223.252 165.328 223.496 165.008 223.816C164.696 224.128 164.448 224.496 164.264 224.92C164.088 225.336 164 225.796 164 226.3C164 226.796 164.088 227.256 164.264 227.68C164.448 228.096 164.696 228.464 165.008 228.784C165.328 229.104 165.704 229.352 166.136 229.528C166.568 229.696 167.036 229.78 167.54 229.78ZM173.067 230.5V229.888L176.559 226.468C176.879 226.156 177.119 225.884 177.279 225.652C177.439 225.412 177.547 225.188 177.603 224.98C177.659 224.772 177.687 224.576 177.687 224.392C177.687 223.904 177.519 223.52 177.183 223.24C176.855 222.96 176.367 222.82 175.719 222.82C175.223 222.82 174.783 222.896 174.399 223.048C174.023 223.2 173.699 223.436 173.427 223.756L172.815 223.228C173.143 222.844 173.563 222.548 174.075 222.34C174.587 222.132 175.159 222.028 175.791 222.028C176.359 222.028 176.851 222.12 177.267 222.304C177.683 222.48 178.003 222.74 178.227 223.084C178.459 223.428 178.575 223.832 178.575 224.296C178.575 224.568 178.535 224.836 178.455 225.1C178.383 225.364 178.247 225.644 178.047 225.94C177.855 226.228 177.571 226.556 177.195 226.924L173.991 230.068L173.751 229.732H178.959V230.5H173.067Z" fill="#606160"/>
<path d="M263.54 230.572C262.908 230.572 262.32 230.468 261.776 230.26C261.24 230.044 260.772 229.744 260.372 229.36C259.98 228.968 259.672 228.516 259.448 228.004C259.232 227.484 259.124 226.916 259.124 226.3C259.124 225.684 259.232 225.12 259.448 224.608C259.672 224.088 259.98 223.636 260.372 223.252C260.772 222.86 261.24 222.56 261.776 222.352C262.312 222.136 262.9 222.028 263.54 222.028C264.172 222.028 264.756 222.136 265.292 222.352C265.828 222.56 266.292 222.856 266.684 223.24C267.084 223.624 267.392 224.076 267.608 224.596C267.832 225.116 267.944 225.684 267.944 226.3C267.944 226.916 267.832 227.484 267.608 228.004C267.392 228.524 267.084 228.976 266.684 229.36C266.292 229.744 265.828 230.044 265.292 230.26C264.756 230.468 264.172 230.572 263.54 230.572ZM266.288 232.168C266.032 232.168 265.784 232.136 265.544 232.072C265.304 232.008 265.06 231.904 264.812 231.76C264.572 231.624 264.324 231.444 264.068 231.22C263.812 230.996 263.532 230.724 263.228 230.404L264.2 230.164C264.448 230.46 264.688 230.704 264.92 230.896C265.16 231.088 265.392 231.228 265.616 231.316C265.848 231.412 266.076 231.46 266.3 231.46C266.924 231.46 267.456 231.204 267.896 230.692L268.328 231.208C267.8 231.848 267.12 232.168 266.288 232.168ZM263.54 229.78C264.044 229.78 264.508 229.696 264.932 229.528C265.364 229.352 265.736 229.104 266.048 228.784C266.368 228.464 266.616 228.096 266.792 227.68C266.968 227.256 267.056 226.796 267.056 226.3C267.056 225.796 266.968 225.336 266.792 224.92C266.616 224.496 266.368 224.128 266.048 223.816C265.736 223.496 265.364 223.252 264.932 223.084C264.508 222.908 264.044 222.82 263.54 222.82C263.036 222.82 262.568 222.908 262.136 223.084C261.704 223.252 261.328 223.496 261.008 223.816C260.696 224.128 260.448 224.496 260.264 224.92C260.088 225.336 260 225.796 260 226.3C260 226.796 260.088 227.256 260.264 227.68C260.448 228.096 260.696 228.464 261.008 228.784C261.328 229.104 261.704 229.352 262.136 229.528C262.568 229.696 263.036 229.78 263.54 229.78ZM271.719 230.572C271.111 230.572 270.535 230.476 269.991 230.284C269.455 230.084 269.023 229.82 268.695 229.492L269.115 228.808C269.387 229.088 269.751 229.32 270.207 229.504C270.671 229.688 271.175 229.78 271.719 229.78C272.415 229.78 272.947 229.628 273.315 229.324C273.691 229.02 273.879 228.612 273.879 228.1C273.879 227.588 273.695 227.18 273.327 226.876C272.967 226.572 272.395 226.42 271.611 226.42H271.011V225.784L273.603 222.532L273.724 222.868H269.043V222.1H274.444V222.712L271.851 225.964L271.431 225.688H271.755C272.763 225.688 273.515 225.912 274.011 226.36C274.516 226.808 274.768 227.384 274.768 228.088C274.768 228.56 274.656 228.984 274.431 229.36C274.207 229.736 273.867 230.032 273.411 230.248C272.963 230.464 272.399 230.572 271.719 230.572Z" fill="#606160"/>
<path d="M358.54 230.572C357.908 230.572 357.32 230.468 356.776 230.26C356.24 230.044 355.772 229.744 355.372 229.36C354.98 228.968 354.672 228.516 354.448 228.004C354.232 227.484 354.124 226.916 354.124 226.3C354.124 225.684 354.232 225.12 354.448 224.608C354.672 224.088 354.98 223.636 355.372 223.252C355.772 222.86 356.24 222.56 356.776 222.352C357.312 222.136 357.9 222.028 358.54 222.028C359.172 222.028 359.756 222.136 360.292 222.352C360.828 222.56 361.292 222.856 361.684 223.24C362.084 223.624 362.392 224.076 362.608 224.596C362.832 225.116 362.944 225.684 362.944 226.3C362.944 226.916 362.832 227.484 362.608 228.004C362.392 228.524 362.084 228.976 361.684 229.36C361.292 229.744 360.828 230.044 360.292 230.26C359.756 230.468 359.172 230.572 358.54 230.572ZM361.288 232.168C361.032 232.168 360.784 232.136 360.544 232.072C360.304 232.008 360.06 231.904 359.812 231.76C359.572 231.624 359.324 231.444 359.068 231.22C358.812 230.996 358.532 230.724 358.228 230.404L359.2 230.164C359.448 230.46 359.688 230.704 359.92 230.896C360.16 231.088 360.392 231.228 360.616 231.316C360.848 231.412 361.076 231.46 361.3 231.46C361.924 231.46 362.456 231.204 362.896 230.692L363.328 231.208C362.8 231.848 362.12 232.168 361.288 232.168ZM358.54 229.78C359.044 229.78 359.508 229.696 359.932 229.528C360.364 229.352 360.736 229.104 361.048 228.784C361.368 228.464 361.616 228.096 361.792 227.68C361.968 227.256 362.056 226.796 362.056 226.3C362.056 225.796 361.968 225.336 361.792 224.92C361.616 224.496 361.368 224.128 361.048 223.816C360.736 223.496 360.364 223.252 359.932 223.084C359.508 222.908 359.044 222.82 358.54 222.82C358.036 222.82 357.568 222.908 357.136 223.084C356.704 223.252 356.328 223.496 356.008 223.816C355.696 224.128 355.448 224.496 355.264 224.92C355.088 225.336 355 225.796 355 226.3C355 226.796 355.088 227.256 355.264 227.68C355.448 228.096 355.696 228.464 356.008 228.784C356.328 229.104 356.704 229.352 357.136 229.528C357.568 229.696 358.036 229.78 358.54 229.78ZM364.196 228.292V227.668L368.648 222.1H369.608L365.192 227.668L364.724 227.524H371.48V228.292H364.196ZM368.936 230.5V228.292L368.96 227.524V225.58H369.8V230.5H368.936Z" fill="#606160"/>
<defs>
<clipPath id="clip0_14_3061">
<path d="M57 104.5C57 103.395 57.8954 102.5 59 102.5H91C92.1046 102.5 93 103.395 93 104.5V210.5H57V104.5Z" fill="white"/>
</clipPath>
<clipPath id="clip1_14_3061">
<path d="M153 86.5C153 85.3954 153.895 84.5 155 84.5H187C188.105 84.5 189 85.3954 189 86.5V210.5H153V86.5Z" fill="white"/>
</clipPath>
<clipPath id="clip2_14_3061">
<path d="M249 62.5C249 61.3954 249.895 60.5 251 60.5H283C284.105 60.5 285 61.3954 285 62.5V210.5H249V62.5Z" fill="white"/>
</clipPath>
<clipPath id="clip3_14_3061">
<path d="M345 15.5C345 14.3954 345.895 13.5 347 13.5H379C380.105 13.5 381 14.3954 381 15.5V210.5H345V15.5Z" fill="white"/>
</clipPath>
</defs>
</svg>
