<svg width="478" height="332" viewBox="0 0 478 332" fill="none" xmlns="http://www.w3.org/2000/svg">
<rect width="478" height="332" rx="10" fill="white"/>
<rect x="20.5" y="60.5" width="437" height="251" rx="7.5" stroke="#EDEDED"/>
<g clip-path="url(#clip0_14_3060)">
<path d="M77 164.5C77 163.395 77.8954 162.5 79 162.5H111C112.105 162.5 113 163.395 113 164.5V270.5H77V164.5Z" fill="#606160"/>
<path d="M82.944 178.5V177.684L86.364 174.384C86.668 174.096 86.892 173.844 87.036 173.628C87.188 173.404 87.288 173.2 87.336 173.016C87.392 172.824 87.42 172.64 87.42 172.464C87.42 172.032 87.268 171.692 86.964 171.444C86.66 171.196 86.216 171.072 85.632 171.072C85.184 171.072 84.78 171.148 84.42 171.3C84.06 171.444 83.748 171.672 83.484 171.984L82.668 171.276C82.988 170.868 83.416 170.556 83.952 170.34C84.496 170.116 85.092 170.004 85.74 170.004C86.324 170.004 86.832 170.1 87.264 170.292C87.696 170.476 88.028 170.744 88.26 171.096C88.5 171.448 88.62 171.864 88.62 172.344C88.62 172.616 88.584 172.884 88.512 173.148C88.44 173.412 88.304 173.692 88.104 173.988C87.904 174.284 87.616 174.616 87.24 174.984L84.192 177.924L83.904 177.456H88.98V178.5H82.944ZM89.9846 178.5V177.684L93.4046 174.384C93.7086 174.096 93.9326 173.844 94.0766 173.628C94.2286 173.404 94.3286 173.2 94.3766 173.016C94.4326 172.824 94.4606 172.64 94.4606 172.464C94.4606 172.032 94.3086 171.692 94.0046 171.444C93.7006 171.196 93.2566 171.072 92.6726 171.072C92.2246 171.072 91.8206 171.148 91.4606 171.3C91.1006 171.444 90.7886 171.672 90.5246 171.984L89.7086 171.276C90.0286 170.868 90.4566 170.556 90.9926 170.34C91.5366 170.116 92.1326 170.004 92.7806 170.004C93.3646 170.004 93.8726 170.1 94.3046 170.292C94.7366 170.476 95.0686 170.744 95.3006 171.096C95.5406 171.448 95.6606 171.864 95.6606 172.344C95.6606 172.616 95.6246 172.884 95.5526 173.148C95.4806 173.412 95.3446 173.692 95.1446 173.988C94.9446 174.284 94.6566 174.616 94.2806 174.984L91.2326 177.924L90.9446 177.456H96.0206V178.5H89.9846ZM98.4264 178.5L104.162 170.1H105.086L99.3504 178.5H98.4264ZM99.0984 174.612C98.7144 174.612 98.3744 174.516 98.0784 174.324C97.7824 174.132 97.5504 173.864 97.3824 173.52C97.2224 173.176 97.1424 172.776 97.1424 172.32C97.1424 171.864 97.2224 171.464 97.3824 171.12C97.5504 170.776 97.7824 170.508 98.0784 170.316C98.3744 170.124 98.7144 170.028 99.0984 170.028C99.4904 170.028 99.8304 170.124 100.118 170.316C100.414 170.508 100.642 170.776 100.802 171.12C100.962 171.464 101.042 171.864 101.042 172.32C101.042 172.776 100.962 173.176 100.802 173.52C100.642 173.864 100.414 174.132 100.118 174.324C99.8304 174.516 99.4904 174.612 99.0984 174.612ZM99.0984 173.928C99.4664 173.928 99.7544 173.788 99.9624 173.508C100.17 173.22 100.274 172.824 100.274 172.32C100.274 171.816 100.17 171.424 99.9624 171.144C99.7544 170.856 99.4664 170.712 99.0984 170.712C98.7384 170.712 98.4504 170.856 98.2344 171.144C98.0264 171.424 97.9224 171.816 97.9224 172.32C97.9224 172.816 98.0264 173.208 98.2344 173.496C98.4504 173.784 98.7384 173.928 99.0984 173.928ZM104.414 178.572C104.03 178.572 103.69 178.476 103.394 178.284C103.098 178.092 102.87 177.824 102.71 177.48C102.55 177.136 102.47 176.736 102.47 176.28C102.47 175.824 102.55 175.424 102.71 175.08C102.87 174.736 103.098 174.468 103.394 174.276C103.69 174.084 104.03 173.988 104.414 173.988C104.806 173.988 105.146 174.084 105.434 174.276C105.73 174.468 105.958 174.736 106.118 175.08C106.286 175.424 106.37 175.824 106.37 176.28C106.37 176.736 106.286 177.136 106.118 177.48C105.958 177.824 105.73 178.092 105.434 178.284C105.146 178.476 104.806 178.572 104.414 178.572ZM104.414 177.888C104.774 177.888 105.058 177.748 105.266 177.468C105.482 177.18 105.59 176.784 105.59 176.28C105.59 175.784 105.482 175.392 105.266 175.104C105.058 174.816 104.774 174.672 104.414 174.672C104.054 174.672 103.766 174.816 103.55 175.104C103.342 175.384 103.238 175.776 103.238 176.28C103.238 176.784 103.342 177.18 103.55 177.468C103.766 177.748 104.054 177.888 104.414 177.888Z" fill="white"/>
</g>
<g clip-path="url(#clip1_14_3060)">
<path d="M173 146.5C173 145.395 173.895 144.5 175 144.5H207C208.105 144.5 209 145.395 209 146.5V270.5H173V146.5Z" fill="#606160"/>
<path d="M178.944 160.5V159.684L182.364 156.384C182.668 156.096 182.892 155.844 183.036 155.628C183.188 155.404 183.288 155.2 183.336 155.016C183.392 154.824 183.42 154.64 183.42 154.464C183.42 154.032 183.268 153.692 182.964 153.444C182.66 153.196 182.216 153.072 181.632 153.072C181.184 153.072 180.78 153.148 180.42 153.3C180.06 153.444 179.748 153.672 179.484 153.984L178.668 153.276C178.988 152.868 179.416 152.556 179.952 152.34C180.496 152.116 181.092 152.004 181.74 152.004C182.324 152.004 182.832 152.1 183.264 152.292C183.696 152.476 184.028 152.744 184.26 153.096C184.5 153.448 184.62 153.864 184.62 154.344C184.62 154.616 184.584 154.884 184.512 155.148C184.44 155.412 184.304 155.692 184.104 155.988C183.904 156.284 183.616 156.616 183.24 156.984L180.192 159.924L179.904 159.456H184.98V160.5H178.944ZM188.829 160.596C188.237 160.596 187.661 160.504 187.101 160.32C186.549 160.136 186.097 159.888 185.745 159.576L186.297 158.628C186.577 158.892 186.941 159.108 187.389 159.276C187.837 159.444 188.313 159.528 188.817 159.528C189.457 159.528 189.949 159.392 190.293 159.12C190.637 158.848 190.809 158.484 190.809 158.028C190.809 157.716 190.733 157.444 190.581 157.212C190.429 156.98 190.165 156.804 189.789 156.684C189.421 156.556 188.913 156.492 188.265 156.492H186.357L186.801 152.1H191.541V153.144H187.245L187.869 152.556L187.521 156.024L186.897 155.448H188.517C189.357 155.448 190.033 155.556 190.545 155.772C191.057 155.988 191.429 156.288 191.661 156.672C191.893 157.048 192.009 157.484 192.009 157.98C192.009 158.46 191.893 158.9 191.661 159.3C191.429 159.692 191.077 160.008 190.605 160.248C190.141 160.48 189.549 160.596 188.829 160.596ZM194.192 160.5L199.928 152.1H200.852L195.116 160.5H194.192ZM194.864 156.612C194.48 156.612 194.14 156.516 193.844 156.324C193.548 156.132 193.316 155.864 193.148 155.52C192.988 155.176 192.908 154.776 192.908 154.32C192.908 153.864 192.988 153.464 193.148 153.12C193.316 152.776 193.548 152.508 193.844 152.316C194.14 152.124 194.48 152.028 194.864 152.028C195.256 152.028 195.596 152.124 195.884 152.316C196.18 152.508 196.408 152.776 196.568 153.12C196.728 153.464 196.808 153.864 196.808 154.32C196.808 154.776 196.728 155.176 196.568 155.52C196.408 155.864 196.18 156.132 195.884 156.324C195.596 156.516 195.256 156.612 194.864 156.612ZM194.864 155.928C195.232 155.928 195.52 155.788 195.728 155.508C195.936 155.22 196.04 154.824 196.04 154.32C196.04 153.816 195.936 153.424 195.728 153.144C195.52 152.856 195.232 152.712 194.864 152.712C194.504 152.712 194.216 152.856 194 153.144C193.792 153.424 193.688 153.816 193.688 154.32C193.688 154.816 193.792 155.208 194 155.496C194.216 155.784 194.504 155.928 194.864 155.928ZM200.18 160.572C199.796 160.572 199.456 160.476 199.16 160.284C198.864 160.092 198.636 159.824 198.476 159.48C198.316 159.136 198.236 158.736 198.236 158.28C198.236 157.824 198.316 157.424 198.476 157.08C198.636 156.736 198.864 156.468 199.16 156.276C199.456 156.084 199.796 155.988 200.18 155.988C200.572 155.988 200.912 156.084 201.2 156.276C201.496 156.468 201.724 156.736 201.884 157.08C202.052 157.424 202.136 157.824 202.136 158.28C202.136 158.736 202.052 159.136 201.884 159.48C201.724 159.824 201.496 160.092 201.2 160.284C200.912 160.476 200.572 160.572 200.18 160.572ZM200.18 159.888C200.54 159.888 200.824 159.748 201.032 159.468C201.248 159.18 201.356 158.784 201.356 158.28C201.356 157.784 201.248 157.392 201.032 157.104C200.824 156.816 200.54 156.672 200.18 156.672C199.82 156.672 199.532 156.816 199.316 157.104C199.108 157.384 199.004 157.776 199.004 158.28C199.004 158.784 199.108 159.18 199.316 159.468C199.532 159.748 199.82 159.888 200.18 159.888Z" fill="white"/>
</g>
<g clip-path="url(#clip2_14_3060)">
<path d="M269 122.5C269 121.395 269.895 120.5 271 120.5H303C304.105 120.5 305 121.395 305 122.5V270.5H269V122.5Z" fill="#606160"/>
<path d="M277.144 136.596C276.552 136.596 275.976 136.504 275.416 136.32C274.864 136.136 274.412 135.888 274.06 135.576L274.612 134.628C274.892 134.892 275.256 135.108 275.704 135.276C276.152 135.444 276.632 135.528 277.144 135.528C277.768 135.528 278.252 135.396 278.596 135.132C278.948 134.86 279.124 134.496 279.124 134.04C279.124 133.6 278.956 133.248 278.62 132.984C278.292 132.712 277.768 132.576 277.048 132.576H276.376V131.736L278.872 128.664L279.04 129.144H274.444V128.1H279.988V128.916L277.504 131.976L276.88 131.604H277.276C278.292 131.604 279.052 131.832 279.556 132.288C280.068 132.744 280.324 133.324 280.324 134.028C280.324 134.5 280.208 134.932 279.976 135.324C279.744 135.716 279.392 136.028 278.92 136.26C278.456 136.484 277.864 136.596 277.144 136.596ZM285.025 136.596C284.369 136.596 283.781 136.428 283.261 136.092C282.749 135.756 282.341 135.268 282.037 134.628C281.741 133.988 281.593 133.212 281.593 132.3C281.593 131.388 281.741 130.612 282.037 129.972C282.341 129.332 282.749 128.844 283.261 128.508C283.781 128.172 284.369 128.004 285.025 128.004C285.673 128.004 286.257 128.172 286.777 128.508C287.297 128.844 287.705 129.332 288.001 129.972C288.297 130.612 288.445 131.388 288.445 132.3C288.445 133.212 288.297 133.988 288.001 134.628C287.705 135.268 287.297 135.756 286.777 136.092C286.257 136.428 285.673 136.596 285.025 136.596ZM285.025 135.528C285.465 135.528 285.849 135.408 286.177 135.168C286.513 134.928 286.773 134.568 286.957 134.088C287.149 133.608 287.245 133.012 287.245 132.3C287.245 131.588 287.149 130.992 286.957 130.512C286.773 130.032 286.513 129.672 286.177 129.432C285.849 129.192 285.465 129.072 285.025 129.072C284.585 129.072 284.197 129.192 283.861 129.432C283.525 129.672 283.261 130.032 283.069 130.512C282.885 130.992 282.793 131.588 282.793 132.3C282.793 133.012 282.885 133.608 283.069 134.088C283.261 134.568 283.525 134.928 283.861 135.168C284.197 135.408 284.585 135.528 285.025 135.528ZM290.899 136.5L296.635 128.1H297.559L291.823 136.5H290.899ZM291.571 132.612C291.187 132.612 290.847 132.516 290.551 132.324C290.255 132.132 290.023 131.864 289.855 131.52C289.695 131.176 289.615 130.776 289.615 130.32C289.615 129.864 289.695 129.464 289.855 129.12C290.023 128.776 290.255 128.508 290.551 128.316C290.847 128.124 291.187 128.028 291.571 128.028C291.963 128.028 292.303 128.124 292.591 128.316C292.887 128.508 293.115 128.776 293.275 129.12C293.435 129.464 293.515 129.864 293.515 130.32C293.515 130.776 293.435 131.176 293.275 131.52C293.115 131.864 292.887 132.132 292.591 132.324C292.303 132.516 291.963 132.612 291.571 132.612ZM291.571 131.928C291.939 131.928 292.227 131.788 292.435 131.508C292.643 131.22 292.747 130.824 292.747 130.32C292.747 129.816 292.643 129.424 292.435 129.144C292.227 128.856 291.939 128.712 291.571 128.712C291.211 128.712 290.923 128.856 290.707 129.144C290.499 129.424 290.395 129.816 290.395 130.32C290.395 130.816 290.499 131.208 290.707 131.496C290.923 131.784 291.211 131.928 291.571 131.928ZM296.887 136.572C296.503 136.572 296.163 136.476 295.867 136.284C295.571 136.092 295.343 135.824 295.183 135.48C295.023 135.136 294.943 134.736 294.943 134.28C294.943 133.824 295.023 133.424 295.183 133.08C295.343 132.736 295.571 132.468 295.867 132.276C296.163 132.084 296.503 131.988 296.887 131.988C297.279 131.988 297.619 132.084 297.907 132.276C298.203 132.468 298.431 132.736 298.591 133.08C298.759 133.424 298.843 133.824 298.843 134.28C298.843 134.736 298.759 135.136 298.591 135.48C298.431 135.824 298.203 136.092 297.907 136.284C297.619 136.476 297.279 136.572 296.887 136.572ZM296.887 135.888C297.247 135.888 297.531 135.748 297.739 135.468C297.955 135.18 298.063 134.784 298.063 134.28C298.063 133.784 297.955 133.392 297.739 133.104C297.531 132.816 297.247 132.672 296.887 132.672C296.527 132.672 296.239 132.816 296.023 133.104C295.815 133.384 295.711 133.776 295.711 134.28C295.711 134.784 295.815 135.18 296.023 135.468C296.239 135.748 296.527 135.888 296.887 135.888Z" fill="white"/>
</g>
<g clip-path="url(#clip3_14_3060)">
<path d="M365 75.5C365 74.3954 365.895 73.5 367 73.5H399C400.105 73.5 401 74.3954 401 75.5V270.5H365V75.5Z" fill="#606160"/>
<path d="M369.956 87.436V86.596L374.252 81.1H375.548L371.288 86.596L370.676 86.404H377.384V87.436H369.956ZM374.624 89.5V87.436L374.66 86.404V84.58H375.788V89.5H374.624ZM381.685 89.596C381.029 89.596 380.441 89.428 379.921 89.092C379.409 88.756 379.001 88.268 378.697 87.628C378.401 86.988 378.253 86.212 378.253 85.3C378.253 84.388 378.401 83.612 378.697 82.972C379.001 82.332 379.409 81.844 379.921 81.508C380.441 81.172 381.029 81.004 381.685 81.004C382.333 81.004 382.917 81.172 383.437 81.508C383.957 81.844 384.365 82.332 384.661 82.972C384.957 83.612 385.105 84.388 385.105 85.3C385.105 86.212 384.957 86.988 384.661 87.628C384.365 88.268 383.957 88.756 383.437 89.092C382.917 89.428 382.333 89.596 381.685 89.596ZM381.685 88.528C382.125 88.528 382.509 88.408 382.837 88.168C383.173 87.928 383.433 87.568 383.617 87.088C383.809 86.608 383.905 86.012 383.905 85.3C383.905 84.588 383.809 83.992 383.617 83.512C383.433 83.032 383.173 82.672 382.837 82.432C382.509 82.192 382.125 82.072 381.685 82.072C381.245 82.072 380.857 82.192 380.521 82.432C380.185 82.672 379.921 83.032 379.729 83.512C379.545 83.992 379.453 84.588 379.453 85.3C379.453 86.012 379.545 86.608 379.729 87.088C379.921 87.568 380.185 87.928 380.521 88.168C380.857 88.408 381.245 88.528 381.685 88.528ZM387.559 89.5L393.295 81.1H394.219L388.483 89.5H387.559ZM388.231 85.612C387.847 85.612 387.507 85.516 387.211 85.324C386.915 85.132 386.683 84.864 386.515 84.52C386.355 84.176 386.275 83.776 386.275 83.32C386.275 82.864 386.355 82.464 386.515 82.12C386.683 81.776 386.915 81.508 387.211 81.316C387.507 81.124 387.847 81.028 388.231 81.028C388.623 81.028 388.963 81.124 389.251 81.316C389.547 81.508 389.775 81.776 389.935 82.12C390.095 82.464 390.175 82.864 390.175 83.32C390.175 83.776 390.095 84.176 389.935 84.52C389.775 84.864 389.547 85.132 389.251 85.324C388.963 85.516 388.623 85.612 388.231 85.612ZM388.231 84.928C388.599 84.928 388.887 84.788 389.095 84.508C389.303 84.22 389.407 83.824 389.407 83.32C389.407 82.816 389.303 82.424 389.095 82.144C388.887 81.856 388.599 81.712 388.231 81.712C387.871 81.712 387.583 81.856 387.367 82.144C387.159 82.424 387.055 82.816 387.055 83.32C387.055 83.816 387.159 84.208 387.367 84.496C387.583 84.784 387.871 84.928 388.231 84.928ZM393.547 89.572C393.163 89.572 392.823 89.476 392.527 89.284C392.231 89.092 392.003 88.824 391.843 88.48C391.683 88.136 391.603 87.736 391.603 87.28C391.603 86.824 391.683 86.424 391.843 86.08C392.003 85.736 392.231 85.468 392.527 85.276C392.823 85.084 393.163 84.988 393.547 84.988C393.939 84.988 394.279 85.084 394.567 85.276C394.863 85.468 395.091 85.736 395.251 86.08C395.419 86.424 395.503 86.824 395.503 87.28C395.503 87.736 395.419 88.136 395.251 88.48C395.091 88.824 394.863 89.092 394.567 89.284C394.279 89.476 393.939 89.572 393.547 89.572ZM393.547 88.888C393.907 88.888 394.191 88.748 394.399 88.468C394.615 88.18 394.723 87.784 394.723 87.28C394.723 86.784 394.615 86.392 394.399 86.104C394.191 85.816 393.907 85.672 393.547 85.672C393.187 85.672 392.899 85.816 392.683 86.104C392.475 86.384 392.371 86.776 392.371 87.28C392.371 87.784 392.475 88.18 392.683 88.468C392.899 88.748 393.187 88.888 393.547 88.888Z" fill="white"/>
</g>
<path d="M92.54 290.572C91.908 290.572 91.32 290.468 90.776 290.26C90.24 290.044 89.772 289.744 89.372 289.36C88.98 288.968 88.672 288.516 88.448 288.004C88.232 287.484 88.124 286.916 88.124 286.3C88.124 285.684 88.232 285.12 88.448 284.608C88.672 284.088 88.98 283.636 89.372 283.252C89.772 282.86 90.24 282.56 90.776 282.352C91.312 282.136 91.9 282.028 92.54 282.028C93.172 282.028 93.756 282.136 94.292 282.352C94.828 282.56 95.292 282.856 95.684 283.24C96.084 283.624 96.392 284.076 96.608 284.596C96.832 285.116 96.944 285.684 96.944 286.3C96.944 286.916 96.832 287.484 96.608 288.004C96.392 288.524 96.084 288.976 95.684 289.36C95.292 289.744 94.828 290.044 94.292 290.26C93.756 290.468 93.172 290.572 92.54 290.572ZM95.288 292.168C95.032 292.168 94.784 292.136 94.544 292.072C94.304 292.008 94.06 291.904 93.812 291.76C93.572 291.624 93.324 291.444 93.068 291.22C92.812 290.996 92.532 290.724 92.228 290.404L93.2 290.164C93.448 290.46 93.688 290.704 93.92 290.896C94.16 291.088 94.392 291.228 94.616 291.316C94.848 291.412 95.076 291.46 95.3 291.46C95.924 291.46 96.456 291.204 96.896 290.692L97.328 291.208C96.8 291.848 96.12 292.168 95.288 292.168ZM92.54 289.78C93.044 289.78 93.508 289.696 93.932 289.528C94.364 289.352 94.736 289.104 95.048 288.784C95.368 288.464 95.616 288.096 95.792 287.68C95.968 287.256 96.056 286.796 96.056 286.3C96.056 285.796 95.968 285.336 95.792 284.92C95.616 284.496 95.368 284.128 95.048 283.816C94.736 283.496 94.364 283.252 93.932 283.084C93.508 282.908 93.044 282.82 92.54 282.82C92.036 282.82 91.568 282.908 91.136 283.084C90.704 283.252 90.328 283.496 90.008 283.816C89.696 284.128 89.448 284.496 89.264 284.92C89.088 285.336 89 285.796 89 286.3C89 286.796 89.088 287.256 89.264 287.68C89.448 288.096 89.696 288.464 90.008 288.784C90.328 289.104 90.704 289.352 91.136 289.528C91.568 289.696 92.036 289.78 92.54 289.78ZM99.6872 290.5V282.46L100.071 282.868H97.7072V282.1H100.551V290.5H99.6872Z" fill="#606160"/>
<path d="M187.54 290.572C186.908 290.572 186.32 290.468 185.776 290.26C185.24 290.044 184.772 289.744 184.372 289.36C183.98 288.968 183.672 288.516 183.448 288.004C183.232 287.484 183.124 286.916 183.124 286.3C183.124 285.684 183.232 285.12 183.448 284.608C183.672 284.088 183.98 283.636 184.372 283.252C184.772 282.86 185.24 282.56 185.776 282.352C186.312 282.136 186.9 282.028 187.54 282.028C188.172 282.028 188.756 282.136 189.292 282.352C189.828 282.56 190.292 282.856 190.684 283.24C191.084 283.624 191.392 284.076 191.608 284.596C191.832 285.116 191.944 285.684 191.944 286.3C191.944 286.916 191.832 287.484 191.608 288.004C191.392 288.524 191.084 288.976 190.684 289.36C190.292 289.744 189.828 290.044 189.292 290.26C188.756 290.468 188.172 290.572 187.54 290.572ZM190.288 292.168C190.032 292.168 189.784 292.136 189.544 292.072C189.304 292.008 189.06 291.904 188.812 291.76C188.572 291.624 188.324 291.444 188.068 291.22C187.812 290.996 187.532 290.724 187.228 290.404L188.2 290.164C188.448 290.46 188.688 290.704 188.92 290.896C189.16 291.088 189.392 291.228 189.616 291.316C189.848 291.412 190.076 291.46 190.3 291.46C190.924 291.46 191.456 291.204 191.896 290.692L192.328 291.208C191.8 291.848 191.12 292.168 190.288 292.168ZM187.54 289.78C188.044 289.78 188.508 289.696 188.932 289.528C189.364 289.352 189.736 289.104 190.048 288.784C190.368 288.464 190.616 288.096 190.792 287.68C190.968 287.256 191.056 286.796 191.056 286.3C191.056 285.796 190.968 285.336 190.792 284.92C190.616 284.496 190.368 284.128 190.048 283.816C189.736 283.496 189.364 283.252 188.932 283.084C188.508 282.908 188.044 282.82 187.54 282.82C187.036 282.82 186.568 282.908 186.136 283.084C185.704 283.252 185.328 283.496 185.008 283.816C184.696 284.128 184.448 284.496 184.264 284.92C184.088 285.336 184 285.796 184 286.3C184 286.796 184.088 287.256 184.264 287.68C184.448 288.096 184.696 288.464 185.008 288.784C185.328 289.104 185.704 289.352 186.136 289.528C186.568 289.696 187.036 289.78 187.54 289.78ZM193.067 290.5V289.888L196.559 286.468C196.879 286.156 197.119 285.884 197.279 285.652C197.439 285.412 197.547 285.188 197.603 284.98C197.659 284.772 197.687 284.576 197.687 284.392C197.687 283.904 197.519 283.52 197.183 283.24C196.855 282.96 196.367 282.82 195.719 282.82C195.223 282.82 194.783 282.896 194.399 283.048C194.023 283.2 193.699 283.436 193.427 283.756L192.815 283.228C193.143 282.844 193.563 282.548 194.075 282.34C194.587 282.132 195.159 282.028 195.791 282.028C196.359 282.028 196.851 282.12 197.267 282.304C197.683 282.48 198.003 282.74 198.227 283.084C198.459 283.428 198.575 283.832 198.575 284.296C198.575 284.568 198.535 284.836 198.455 285.1C198.383 285.364 198.247 285.644 198.047 285.94C197.855 286.228 197.571 286.556 197.195 286.924L193.991 290.068L193.751 289.732H198.959V290.5H193.067Z" fill="#606160"/>
<path d="M283.54 290.572C282.908 290.572 282.32 290.468 281.776 290.26C281.24 290.044 280.772 289.744 280.372 289.36C279.98 288.968 279.672 288.516 279.448 288.004C279.232 287.484 279.124 286.916 279.124 286.3C279.124 285.684 279.232 285.12 279.448 284.608C279.672 284.088 279.98 283.636 280.372 283.252C280.772 282.86 281.24 282.56 281.776 282.352C282.312 282.136 282.9 282.028 283.54 282.028C284.172 282.028 284.756 282.136 285.292 282.352C285.828 282.56 286.292 282.856 286.684 283.24C287.084 283.624 287.392 284.076 287.608 284.596C287.832 285.116 287.944 285.684 287.944 286.3C287.944 286.916 287.832 287.484 287.608 288.004C287.392 288.524 287.084 288.976 286.684 289.36C286.292 289.744 285.828 290.044 285.292 290.26C284.756 290.468 284.172 290.572 283.54 290.572ZM286.288 292.168C286.032 292.168 285.784 292.136 285.544 292.072C285.304 292.008 285.06 291.904 284.812 291.76C284.572 291.624 284.324 291.444 284.068 291.22C283.812 290.996 283.532 290.724 283.228 290.404L284.2 290.164C284.448 290.46 284.688 290.704 284.92 290.896C285.16 291.088 285.392 291.228 285.616 291.316C285.848 291.412 286.076 291.46 286.3 291.46C286.924 291.46 287.456 291.204 287.896 290.692L288.328 291.208C287.8 291.848 287.12 292.168 286.288 292.168ZM283.54 289.78C284.044 289.78 284.508 289.696 284.932 289.528C285.364 289.352 285.736 289.104 286.048 288.784C286.368 288.464 286.616 288.096 286.792 287.68C286.968 287.256 287.056 286.796 287.056 286.3C287.056 285.796 286.968 285.336 286.792 284.92C286.616 284.496 286.368 284.128 286.048 283.816C285.736 283.496 285.364 283.252 284.932 283.084C284.508 282.908 284.044 282.82 283.54 282.82C283.036 282.82 282.568 282.908 282.136 283.084C281.704 283.252 281.328 283.496 281.008 283.816C280.696 284.128 280.448 284.496 280.264 284.92C280.088 285.336 280 285.796 280 286.3C280 286.796 280.088 287.256 280.264 287.68C280.448 288.096 280.696 288.464 281.008 288.784C281.328 289.104 281.704 289.352 282.136 289.528C282.568 289.696 283.036 289.78 283.54 289.78ZM291.719 290.572C291.111 290.572 290.535 290.476 289.991 290.284C289.455 290.084 289.023 289.82 288.695 289.492L289.115 288.808C289.387 289.088 289.751 289.32 290.207 289.504C290.671 289.688 291.175 289.78 291.719 289.78C292.415 289.78 292.947 289.628 293.315 289.324C293.691 289.02 293.879 288.612 293.879 288.1C293.879 287.588 293.695 287.18 293.327 286.876C292.967 286.572 292.395 286.42 291.611 286.42H291.011V285.784L293.603 282.532L293.724 282.868H289.043V282.1H294.444V282.712L291.851 285.964L291.431 285.688H291.755C292.763 285.688 293.515 285.912 294.011 286.36C294.516 286.808 294.768 287.384 294.768 288.088C294.768 288.56 294.656 288.984 294.431 289.36C294.207 289.736 293.867 290.032 293.411 290.248C292.963 290.464 292.399 290.572 291.719 290.572Z" fill="#606160"/>
<path d="M378.54 290.572C377.908 290.572 377.32 290.468 376.776 290.26C376.24 290.044 375.772 289.744 375.372 289.36C374.98 288.968 374.672 288.516 374.448 288.004C374.232 287.484 374.124 286.916 374.124 286.3C374.124 285.684 374.232 285.12 374.448 284.608C374.672 284.088 374.98 283.636 375.372 283.252C375.772 282.86 376.24 282.56 376.776 282.352C377.312 282.136 377.9 282.028 378.54 282.028C379.172 282.028 379.756 282.136 380.292 282.352C380.828 282.56 381.292 282.856 381.684 283.24C382.084 283.624 382.392 284.076 382.608 284.596C382.832 285.116 382.944 285.684 382.944 286.3C382.944 286.916 382.832 287.484 382.608 288.004C382.392 288.524 382.084 288.976 381.684 289.36C381.292 289.744 380.828 290.044 380.292 290.26C379.756 290.468 379.172 290.572 378.54 290.572ZM381.288 292.168C381.032 292.168 380.784 292.136 380.544 292.072C380.304 292.008 380.06 291.904 379.812 291.76C379.572 291.624 379.324 291.444 379.068 291.22C378.812 290.996 378.532 290.724 378.228 290.404L379.2 290.164C379.448 290.46 379.688 290.704 379.92 290.896C380.16 291.088 380.392 291.228 380.616 291.316C380.848 291.412 381.076 291.46 381.3 291.46C381.924 291.46 382.456 291.204 382.896 290.692L383.328 291.208C382.8 291.848 382.12 292.168 381.288 292.168ZM378.54 289.78C379.044 289.78 379.508 289.696 379.932 289.528C380.364 289.352 380.736 289.104 381.048 288.784C381.368 288.464 381.616 288.096 381.792 287.68C381.968 287.256 382.056 286.796 382.056 286.3C382.056 285.796 381.968 285.336 381.792 284.92C381.616 284.496 381.368 284.128 381.048 283.816C380.736 283.496 380.364 283.252 379.932 283.084C379.508 282.908 379.044 282.82 378.54 282.82C378.036 282.82 377.568 282.908 377.136 283.084C376.704 283.252 376.328 283.496 376.008 283.816C375.696 284.128 375.448 284.496 375.264 284.92C375.088 285.336 375 285.796 375 286.3C375 286.796 375.088 287.256 375.264 287.68C375.448 288.096 375.696 288.464 376.008 288.784C376.328 289.104 376.704 289.352 377.136 289.528C377.568 289.696 378.036 289.78 378.54 289.78ZM384.196 288.292V287.668L388.648 282.1H389.608L385.192 287.668L384.724 287.524H391.48V288.292H384.196ZM388.936 290.5V288.292L388.96 287.524V285.58H389.8V290.5H388.936Z" fill="#606160"/>
<path d="M27.9 39.2C25.98 39.2 24.4733 38.66 23.38 37.58C22.3 36.5 21.76 34.94 21.76 32.9V25H24.36V32.8C24.36 34.24 24.6667 35.2867 25.28 35.94C25.9067 36.5933 26.7867 36.92 27.92 36.92C29.0533 36.92 29.9267 36.5933 30.54 35.94C31.1533 35.2867 31.46 34.24 31.46 32.8V25H34.02V32.9C34.02 34.94 33.4733 36.5 32.38 37.58C31.3 38.66 29.8067 39.2 27.9 39.2ZM40.7213 39.14C39.8279 39.14 38.9679 39.0267 38.1413 38.8C37.3279 38.56 36.6813 38.2733 36.2013 37.94L37.1613 36.04C37.6413 36.3467 38.2146 36.6 38.8813 36.8C39.5479 37 40.2146 37.1 40.8813 37.1C41.6679 37.1 42.2346 36.9933 42.5813 36.78C42.9413 36.5667 43.1213 36.28 43.1213 35.92C43.1213 35.6267 43.0013 35.4067 42.7613 35.26C42.5213 35.1 42.2079 34.98 41.8213 34.9C41.4346 34.82 41.0013 34.7467 40.5213 34.68C40.0546 34.6133 39.5813 34.5267 39.1013 34.42C38.6346 34.3 38.2079 34.1333 37.8213 33.92C37.4346 33.6933 37.1213 33.3933 36.8813 33.02C36.6413 32.6467 36.5213 32.1533 36.5213 31.54C36.5213 30.86 36.7146 30.2733 37.1012 29.78C37.4879 29.2733 38.0279 28.8867 38.7212 28.62C39.4279 28.34 40.2613 28.2 41.2213 28.2C41.9413 28.2 42.6679 28.28 43.4013 28.44C44.1346 28.6 44.7413 28.8267 45.2213 29.12L44.2613 31.02C43.7546 30.7133 43.2413 30.5067 42.7213 30.4C42.2146 30.28 41.7079 30.22 41.2013 30.22C40.4413 30.22 39.8746 30.3333 39.5013 30.56C39.1413 30.7867 38.9613 31.0733 38.9613 31.42C38.9613 31.74 39.0813 31.98 39.3213 32.14C39.5613 32.3 39.8746 32.4267 40.2613 32.52C40.6479 32.6133 41.0746 32.6933 41.5413 32.76C42.0213 32.8133 42.4946 32.9 42.9613 33.02C43.4279 33.14 43.8546 33.3067 44.2413 33.52C44.6413 33.72 44.9613 34.0067 45.2013 34.38C45.4413 34.7533 45.5613 35.24 45.5613 35.84C45.5613 36.5067 45.3613 37.0867 44.9613 37.58C44.5746 38.0733 44.0213 38.46 43.3013 38.74C42.5813 39.0067 41.7213 39.14 40.7213 39.14ZM52.7342 39.14C51.5476 39.14 50.5076 38.9067 49.6142 38.44C48.7342 37.96 48.0476 37.3067 47.5542 36.48C47.0742 35.6533 46.8342 34.7133 46.8342 33.66C46.8342 32.5933 47.0676 31.6533 47.5342 30.84C48.0142 30.0133 48.6676 29.3667 49.4942 28.9C50.3342 28.4333 51.2876 28.2 52.3542 28.2C53.3942 28.2 54.3209 28.4267 55.1342 28.88C55.9476 29.3333 56.5876 29.9733 57.0542 30.8C57.5209 31.6267 57.7542 32.6 57.7542 33.72C57.7542 33.8267 57.7476 33.9467 57.7342 34.08C57.7342 34.2133 57.7276 34.34 57.7142 34.46H48.8142V32.8H56.3942L55.4142 33.32C55.4276 32.7067 55.3009 32.1667 55.0342 31.7C54.7676 31.2333 54.4009 30.8667 53.9342 30.6C53.4809 30.3333 52.9542 30.2 52.3542 30.2C51.7409 30.2 51.2009 30.3333 50.7342 30.6C50.2809 30.8667 49.9209 31.24 49.6542 31.72C49.4009 32.1867 49.2742 32.74 49.2742 33.38V33.78C49.2742 34.42 49.4209 34.9867 49.7142 35.48C50.0076 35.9733 50.4209 36.3533 50.9542 36.62C51.4876 36.8867 52.1009 37.02 52.7942 37.02C53.3942 37.02 53.9342 36.9267 54.4142 36.74C54.8942 36.5533 55.3209 36.26 55.6942 35.86L57.0342 37.4C56.5542 37.96 55.9476 38.3933 55.2142 38.7C54.4942 38.9933 53.6676 39.14 52.7342 39.14ZM60.1556 39V28.32H62.5356V31.26L62.2556 30.4C62.5756 29.68 63.0756 29.1333 63.7556 28.76C64.449 28.3867 65.309 28.2 66.3356 28.2V30.58C66.229 30.5533 66.129 30.54 66.0356 30.54C65.9423 30.5267 65.849 30.52 65.7556 30.52C64.809 30.52 64.0556 30.8 63.4956 31.36C62.9356 31.9067 62.6556 32.7267 62.6556 33.82V39H60.1556ZM71.8541 39.14C70.9607 39.14 70.1007 39.0267 69.2741 38.8C68.4607 38.56 67.8141 38.2733 67.3341 37.94L68.2941 36.04C68.7741 36.3467 69.3474 36.6 70.0141 36.8C70.6807 37 71.3474 37.1 72.0141 37.1C72.8007 37.1 73.3674 36.9933 73.7141 36.78C74.0741 36.5667 74.2541 36.28 74.2541 35.92C74.2541 35.6267 74.1341 35.4067 73.8941 35.26C73.6541 35.1 73.3407 34.98 72.9541 34.9C72.5674 34.82 72.1341 34.7467 71.6541 34.68C71.1874 34.6133 70.7141 34.5267 70.2341 34.42C69.7674 34.3 69.3407 34.1333 68.9541 33.92C68.5674 33.6933 68.2541 33.3933 68.0141 33.02C67.7741 32.6467 67.6541 32.1533 67.6541 31.54C67.6541 30.86 67.8474 30.2733 68.2341 29.78C68.6207 29.2733 69.1607 28.8867 69.8541 28.62C70.5607 28.34 71.3941 28.2 72.3541 28.2C73.0741 28.2 73.8007 28.28 74.5341 28.44C75.2674 28.6 75.8741 28.8267 76.3541 29.12L75.3941 31.02C74.8874 30.7133 74.3741 30.5067 73.8541 30.4C73.3474 30.28 72.8407 30.22 72.3341 30.22C71.5741 30.22 71.0074 30.3333 70.6341 30.56C70.2741 30.7867 70.0941 31.0733 70.0941 31.42C70.0941 31.74 70.2141 31.98 70.4541 32.14C70.6941 32.3 71.0074 32.4267 71.3941 32.52C71.7807 32.6133 72.2074 32.6933 72.6741 32.76C73.1541 32.8133 73.6274 32.9 74.0941 33.02C74.5607 33.14 74.9874 33.3067 75.3741 33.52C75.7741 33.72 76.0941 34.0067 76.3341 34.38C76.5741 34.7533 76.6941 35.24 76.6941 35.84C76.6941 36.5067 76.4941 37.0867 76.0941 37.58C75.7074 38.0733 75.1541 38.46 74.4341 38.74C73.7141 39.0067 72.8541 39.14 71.8541 39.14Z" fill="#606160"/>
<defs>
<clipPath id="clip0_14_3060">
<path d="M77 164.5C77 163.395 77.8954 162.5 79 162.5H111C112.105 162.5 113 163.395 113 164.5V270.5H77V164.5Z" fill="white"/>
</clipPath>
<clipPath id="clip1_14_3060">
<path d="M173 146.5C173 145.395 173.895 144.5 175 144.5H207C208.105 144.5 209 145.395 209 146.5V270.5H173V146.5Z" fill="white"/>
</clipPath>
<clipPath id="clip2_14_3060">
<path d="M269 122.5C269 121.395 269.895 120.5 271 120.5H303C304.105 120.5 305 121.395 305 122.5V270.5H269V122.5Z" fill="white"/>
</clipPath>
<clipPath id="clip3_14_3060">
<path d="M365 75.5C365 74.3954 365.895 73.5 367 73.5H399C400.105 73.5 401 74.3954 401 75.5V270.5H365V75.5Z" fill="white"/>
</clipPath>
</defs>
</svg>
