<svg width="24" height="25" viewBox="0 0 24 25" fill="none" xmlns="http://www.w3.org/2000/svg">
<path fill-rule="evenodd" clip-rule="evenodd" d="M12 11C11.173 11 10.5 11.673 10.5 12.5C10.5 13.327 11.173 14 12 14C12.827 14 13.5 13.327 13.5 12.5C13.5 11.673 12.827 11 12 11ZM12 16C10.07 16 8.5 14.43 8.5 12.5C8.5 10.57 10.07 9.00001 12 9.00001C13.93 9.00001 15.5 10.57 15.5 12.5C15.5 14.43 13.93 16 12 16ZM21.868 12.002C21.229 10.89 17.706 5.31601 11.729 5.50301C6.202 5.64401 2.986 10.514 2.132 12.002C1.956 12.311 1.956 12.689 2.132 12.998C2.762 14.095 6.162 19.5 12.025 19.5C12.106 19.5 12.188 19.499 12.271 19.497C17.798 19.356 21.014 14.486 21.868 12.998C22.044 12.689 22.044 12.311 21.868 12.002Z" fill="#CDCECE"/>
<mask id="mask0_2_177" style="mask-type:luminance" maskUnits="userSpaceOnUse" x="2" y="5" width="20" height="15">
<path fill-rule="evenodd" clip-rule="evenodd" d="M12 11C11.173 11 10.5 11.673 10.5 12.5C10.5 13.327 11.173 14 12 14C12.827 14 13.5 13.327 13.5 12.5C13.5 11.673 12.827 11 12 11ZM12 16C10.07 16 8.5 14.43 8.5 12.5C8.5 10.57 10.07 9.00001 12 9.00001C13.93 9.00001 15.5 10.57 15.5 12.5C15.5 14.43 13.93 16 12 16ZM21.868 12.002C21.229 10.89 17.706 5.31601 11.729 5.50301C6.202 5.64401 2.986 10.514 2.132 12.002C1.956 12.311 1.956 12.689 2.132 12.998C2.762 14.095 6.162 19.5 12.025 19.5C12.106 19.5 12.188 19.499 12.271 19.497C17.798 19.356 21.014 14.486 21.868 12.998C22.044 12.689 22.044 12.311 21.868 12.002Z" fill="white"/>
</mask>
<g mask="url(#mask0_2_177)">
</g>
</svg>
