<svg width="14" height="14" viewBox="0 0 14 14" fill="none" xmlns="http://www.w3.org/2000/svg">
<path d="M7.49759 7.32558C7.49759 7.42065 7.42053 7.49771 7.32546 7.49771C7.23038 7.49771 7.15332 7.42065 7.15332 7.32558C7.15332 7.2305 7.23038 7.15344 7.32546 7.15344C7.42053 7.15344 7.49759 7.2305 7.49759 7.32558Z" fill="#606160"/>
<path d="M6.7341 6.73441L5.86426 8.78659L7.91644 7.91674L8.78628 5.86456L6.7341 6.73441ZM7.3253 7.99862C6.95416 7.99862 6.65228 7.69659 6.65228 7.3256C6.65228 6.95462 6.95432 6.65259 7.3253 6.65259C7.69628 6.65259 7.99831 6.95462 7.99831 7.3256C7.99831 7.69659 7.69644 7.99862 7.3253 7.99862Z" fill="#606160"/>
<path d="M11.5007 7.32564C11.5007 7.18726 11.6129 7.07523 11.7511 7.07523H12.6515C12.5241 4.33395 10.3173 2.12732 7.57605 2V2.90034C7.57605 3.03872 7.46386 3.15075 7.32564 3.15075C7.18726 3.15075 7.07523 3.03872 7.07523 2.90034V2C4.33395 2.12732 2.12732 4.33395 2 7.07523H2.90019C3.03856 7.07523 3.1506 7.18726 3.1506 7.32564C3.1506 7.46386 3.03857 7.57604 2.90019 7.57604H2C2.12732 10.3173 4.33395 12.5241 7.07523 12.6513V11.7511C7.07523 11.6129 7.18726 11.5007 7.32564 11.5007C7.46386 11.5007 7.57605 11.6129 7.57605 11.7511V12.6513C10.3173 12.5241 12.5241 10.3173 12.6513 7.57604H11.7509C11.6129 7.57604 11.5007 7.46386 11.5007 7.32564H11.5007ZM9.50783 5.40717C9.50715 5.41852 9.50669 5.43003 9.5045 5.44108C9.50367 5.44494 9.50185 5.44857 9.50102 5.45258C9.49784 5.46477 9.49466 5.47696 9.48981 5.48846C9.48966 5.48899 9.48951 5.4896 9.48928 5.49013L8.33816 8.20544C8.33748 8.20696 8.33634 8.20809 8.33551 8.20961C8.32718 8.2283 8.31613 8.24587 8.30326 8.26206C8.30024 8.26577 8.29759 8.26971 8.29426 8.27327C8.28025 8.28932 8.2642 8.30362 8.24604 8.31581C8.24324 8.31763 8.24021 8.31884 8.23733 8.3205C8.22696 8.32671 8.21682 8.33299 8.20546 8.33784L5.49034 9.48935C5.48451 9.49184 5.47846 9.49283 5.47263 9.49487C5.4671 9.49669 5.46181 9.49835 5.45613 9.49987C5.43509 9.50539 5.41389 9.50925 5.39285 9.50925C5.3718 9.50925 5.35061 9.50555 5.32956 9.49987C5.32389 9.49835 5.31851 9.49654 5.31306 9.49487C5.30708 9.49268 5.30103 9.49169 5.29535 9.48935C5.28415 9.48465 5.27431 9.47829 5.26416 9.47216C5.26098 9.47019 5.25765 9.46883 5.25447 9.46702C5.23646 9.45498 5.22056 9.44067 5.20655 9.42478C5.20322 9.42107 5.20035 9.41713 5.19717 9.41312C5.1843 9.39692 5.17347 9.37974 5.16515 9.36089C5.16447 9.35922 5.16318 9.35824 5.1625 9.35672C5.16235 9.35604 5.1622 9.35536 5.16197 9.35476C5.15728 9.34355 5.1541 9.33137 5.15114 9.31956C5.15016 9.31555 5.14834 9.31153 5.14766 9.30752C5.14532 9.29632 5.14486 9.28466 5.14418 9.27316C5.14403 9.26846 5.14282 9.26362 5.14282 9.259C5.14282 9.25446 5.1438 9.24984 5.14418 9.2453C5.14486 9.23364 5.14532 9.22176 5.14766 9.2104C5.14834 9.20692 5.14986 9.20374 5.15069 9.20018C5.15387 9.18747 5.1572 9.17482 5.1622 9.16264C5.16235 9.16211 5.16235 9.16165 5.16273 9.16112L6.31385 6.44581C6.31604 6.44097 6.31899 6.4368 6.32134 6.43211C6.32604 6.42257 6.33073 6.41311 6.33671 6.40425C6.34087 6.39789 6.34587 6.39259 6.35056 6.38692C6.35609 6.3801 6.36138 6.37306 6.36774 6.36671C6.37342 6.36103 6.37978 6.35634 6.38591 6.35134C6.39242 6.34596 6.39863 6.34051 6.40559 6.33582C6.41324 6.33067 6.42149 6.32681 6.42966 6.32265C6.43549 6.31962 6.44072 6.31584 6.44685 6.31326L9.16216 5.16214C9.16284 5.16199 9.16352 5.16184 9.16398 5.16161C9.17336 5.15775 9.18298 5.15525 9.19289 5.1526C9.19925 5.15079 9.20539 5.14829 9.21174 5.14693C9.21492 5.14625 9.2181 5.1464 9.22128 5.14594C9.25065 5.1414 9.28002 5.1414 9.30826 5.14693C9.3131 5.14791 9.31795 5.14995 9.32264 5.15109C9.33369 5.15412 9.34482 5.15692 9.35534 5.16131C9.35602 5.16161 9.35686 5.16161 9.35769 5.16199C9.36389 5.16464 9.36904 5.1685 9.37502 5.17153C9.38289 5.17569 9.39107 5.1794 9.39856 5.18455C9.40606 5.18939 9.41242 5.19522 9.41923 5.2009C9.42491 5.20574 9.43089 5.21006 9.43641 5.21543C9.44307 5.22209 9.4486 5.22944 9.45443 5.23678C9.45874 5.24231 9.46344 5.2473 9.46745 5.25313C9.47343 5.26229 9.47827 5.27213 9.48334 5.28205C9.48554 5.28636 9.48834 5.29022 9.49038 5.29492C9.49054 5.29545 9.49069 5.29605 9.49091 5.29658C9.49576 5.30809 9.49909 5.32028 9.50212 5.33246C9.50295 5.33632 9.50477 5.34011 9.5056 5.34397C9.50779 5.35502 9.50825 5.36653 9.50893 5.37788C9.50923 5.38273 9.51044 5.38772 9.51044 5.39257C9.51037 5.39718 9.50825 5.40218 9.50787 5.40718L9.50783 5.40717Z" fill="#606160"/>
</svg>
