<svg width="10" height="12" viewBox="0 0 10 12" fill="none" xmlns="http://www.w3.org/2000/svg">
<path d="M7.99849 1.98216C7.24337 1.22571 6.20585 0.75 5.07588 0.75C3.93928 0.75 2.90548 1.23573 2.15301 1.99781C1.39056 2.76967 0.916016 3.82898 0.916016 4.95679C0.916016 5.35898 0.979213 5.75114 1.10187 6.12516C1.22045 6.48676 1.39644 6.83203 1.62637 7.15245L4.68393 11.6224C4.71655 11.6718 4.75916 11.7161 4.81129 11.7516C5.02531 11.8978 5.31784 11.8425 5.46373 11.6285L8.49445 7.19804C8.73051 6.85641 8.91494 6.48855 9.03962 6.10045C9.16289 5.71728 9.22813 5.31778 9.22813 4.90873C9.22813 3.78057 8.75421 2.73941 7.9985 1.98213L7.99849 1.98216ZM5.0719 3.49662C5.83522 3.49662 6.45407 4.11548 6.45407 4.8788C6.45407 5.64212 5.83522 6.26097 5.0719 6.26097C4.30858 6.26097 3.68973 5.64212 3.68973 4.8788C3.68973 4.11548 4.30858 3.49662 5.0719 3.49662Z" fill="#5F605F"/>
</svg>
