<svg width="102" height="103" viewBox="0 0 102 103" fill="none" xmlns="http://www.w3.org/2000/svg">
<g clip-path="url(#clip0_74_396)">
<path d="M15.6967 21.8018V65.0891C15.6967 70.1025 17.7057 74.9112 21.2802 78.4562L37.5208 94.5625C44.9651 101.945 57.0349 101.945 64.4792 94.5625L80.7198 78.4562C84.2943 74.9112 86.3033 70.1025 86.3033 65.0891V21.8018C86.3033 11.3604 77.7684 2.8974 67.2413 2.8974H34.7587C24.2302 2.8974 15.6967 11.3618 15.6967 21.8018Z" fill="#409E9A"/>
<path d="M67.2413 2.89738C77.7698 2.89738 86.3033 11.3618 86.3033 21.8018V65.0891C86.3033 70.1025 84.2957 74.9112 80.7198 78.4562L64.4792 94.5624C60.7564 98.2545 55.8778 100.1 51.0007 100.1C46.1236 100.1 41.2436 98.2545 37.5222 94.5624L21.2816 78.4562C17.7071 74.9112 15.6981 70.1025 15.6981 65.0891V21.8018C15.6981 11.3604 24.233 2.89738 34.7601 2.89738H67.2427M67.2427 0.5H34.7601C31.861 0.5 29.048 1.06326 26.3989 2.17438C23.8403 3.24767 21.5444 4.78334 19.5721 6.73935C17.5998 8.69536 16.0513 10.9722 14.969 13.5097C13.8487 16.1369 13.2807 18.928 13.2807 21.8018V65.0891C13.2807 67.9012 13.8303 70.6433 14.9154 73.2411C16.0004 75.8388 17.5673 78.1633 19.5721 80.1516L35.8127 96.2578C37.8627 98.2909 40.2532 99.8644 42.9193 100.938C45.4935 101.973 48.2118 102.497 51.0007 102.497C53.7897 102.497 56.508 101.972 59.0822 100.938C61.7482 99.8658 64.1387 98.2909 66.1887 96.2578L82.4293 80.1516C84.4342 78.1633 86.001 75.8388 87.0861 73.2411C88.1711 70.6433 88.7207 67.9012 88.7207 65.0891V21.8018C88.7207 18.9266 88.1528 16.1369 87.0324 13.5097C85.9501 10.9722 84.4017 8.69536 82.4293 6.73935C80.457 4.78334 78.1611 3.24767 75.6025 2.17438C72.9534 1.06326 70.139 0.5 67.2413 0.5L67.2427 0.5Z" fill="#E97873"/>
<path d="M37.5208 94.5652C44.9651 101.948 57.035 101.948 64.4792 94.5652L80.7198 78.4589C84.2943 74.914 86.3034 70.1052 86.3034 65.0919V64.5048C77.9959 66.1554 46.9657 72.6708 24.8773 82.0277L37.5208 94.5666V94.5652Z" fill="url(#paint0_linear_74_396)"/>
<path d="M27.1379 68.2515L15.7122 65.8107C15.8945 70.5635 17.8767 75.0836 21.2802 78.459L37.5208 94.5653C44.9651 101.948 57.035 101.948 64.4792 94.5653L76.1987 82.9427C60.8299 76.5576 41.4358 71.5317 28.3345 68.5234C27.929 68.4309 27.5306 68.3398 27.1379 68.2501V68.2515Z" fill="url(#paint1_linear_74_396)"/>
<path d="M65.9104 5.98553H36.0896C29.4888 5.98553 23.7413 9.61033 20.7603 14.9613H81.2397C78.2586 9.60893 72.5112 5.98553 65.9104 5.98553Z" fill="url(#paint2_linear_74_396)"/>
<path d="M89.4879 12.2683H12.5715C7.06183 12.2683 2.5954 16.6978 2.5954 22.1619C2.5954 27.6259 7.06183 32.0554 12.5715 32.0554H89.4879C94.9975 32.0554 99.464 27.6259 99.464 22.1619C99.464 16.6978 94.9975 12.2683 89.4879 12.2683Z" fill="#409E9A"/>
<path d="M89.5303 12.2683C94.7592 12.2683 98.9977 16.4718 98.9977 21.6574V22.6677C98.9977 27.8534 94.7592 32.0568 89.5303 32.0568H12.4711C7.24222 32.0568 3.0037 27.8534 3.0037 22.6677V21.6574C3.0037 16.4718 7.24222 12.2683 12.4711 12.2683H89.5303ZM89.5303 9.28943H12.4711C10.7884 9.28943 9.1552 9.6173 7.61662 10.2632C6.13173 10.8867 4.79801 11.7779 3.6536 12.9128C2.5092 14.0478 1.61064 15.3704 0.981924 16.8431C0.330605 18.3703 0 19.9901 0 21.6574V22.6677C0 24.3365 0.330605 25.9562 0.981924 27.482C1.61064 28.9547 2.5092 30.2774 3.6536 31.4123C4.79801 32.5472 6.13173 33.4384 7.61662 34.0619C9.15662 34.7078 10.7899 35.0357 12.4711 35.0357H89.5303C91.213 35.0357 92.8462 34.7078 94.3848 34.0619C95.8697 33.4384 97.2034 32.5472 98.3478 31.4123C99.4922 30.2774 100.391 28.9547 101.019 27.482C101.671 25.9548 102.001 24.3351 102.001 22.6677V21.6574C102.001 19.9887 101.671 18.3689 101.019 16.8431C100.391 15.3704 99.4922 14.0478 98.3478 12.9128C97.2034 11.7779 95.8697 10.8867 94.3848 10.2632C92.8448 9.6173 91.2115 9.28943 89.5303 9.28943Z" fill="#E97873"/>
<path d="M9.69916 24.5396L10.6006 18.1966C10.6571 17.8239 10.8591 17.6235 11.2363 17.5927C11.9442 17.5352 12.5941 17.5352 13.641 17.5352C15.6119 17.5352 16.6729 18.0985 16.4328 19.8864C16.2999 20.8924 15.8097 21.4472 14.8956 21.635C14.7826 21.6574 14.7826 21.7051 14.8843 21.7499C15.3237 21.9278 15.5949 22.2991 15.6656 22.9073L15.9199 24.5466C15.9722 24.9684 15.7617 25.2094 15.3336 25.2094H14.4689C14.0761 25.2094 13.8444 25.009 13.8091 24.6209L13.6014 22.8932C13.5661 22.4491 13.4333 22.3608 13.0645 22.3608C12.7354 22.3608 12.4457 22.3524 12.1999 22.3496C12.0897 22.3496 12.0346 22.4042 12.0233 22.5037L11.7223 24.6335C11.6644 25.0174 11.4412 25.2094 11.0569 25.2094H10.2813C9.85599 25.2094 9.64265 24.9599 9.70057 24.5382L9.69916 24.5396ZM13.2468 20.8588C13.9998 20.856 14.2499 20.699 14.3615 19.9046C14.4548 19.2755 14.2796 19.0373 13.6156 19.0373C13.2722 19.0373 12.9487 19.0373 12.6647 19.0401C12.5658 19.0401 12.5093 19.0919 12.4881 19.1942L12.2832 20.6836C12.2649 20.7929 12.32 20.8588 12.4302 20.8588H13.2482H13.2468Z" fill="white"/>
<path d="M21.6489 19.7589H22.3751C22.8004 19.7589 23.0222 19.9998 22.9558 20.4188L22.3709 24.6363C22.3214 25.0174 22.0982 25.2094 21.7026 25.2094H21.3395C20.9411 25.2094 20.7207 24.995 20.7037 24.5998L20.7094 24.4793C20.7009 24.3532 20.6204 24.3168 20.5229 24.3995C19.784 25.0594 19.1171 25.3593 18.4022 25.3593C17.2917 25.3593 16.7888 24.7834 16.9286 23.8012L17.4132 20.3319C17.4627 19.9508 17.6859 19.7589 18.0815 19.7589H18.8346C19.2598 19.7589 19.4732 19.9998 19.4152 20.4188L19.0041 23.2491C18.9561 23.5868 19.0776 23.6849 19.3262 23.6849C19.6992 23.6849 20.01 23.5238 20.5003 23.1482C20.5667 23.102 20.5893 23.046 20.5992 22.9745L20.9736 20.3361C21.0301 19.9522 21.2519 19.7603 21.6475 19.7603L21.6489 19.7589Z" fill="white"/>
<path d="M28.2511 20.3221L28.1254 20.8742C28.0322 21.2511 27.8019 21.4234 27.402 21.4473C26.9542 21.4823 26.5939 21.5706 26.0598 21.7821C25.9539 21.813 25.8889 21.8844 25.8776 21.9951L25.5088 24.6363C25.4594 25.0174 25.239 25.2094 24.8434 25.2094H24.0903C23.6651 25.2094 23.4517 24.9684 23.5097 24.5494L24.1059 20.3319C24.1553 19.9508 24.3786 19.7589 24.7741 19.7589H25.1457C25.5357 19.7589 25.7335 19.9256 25.7773 20.2731L25.7716 20.423C25.7872 20.5337 25.8861 20.5435 26.016 20.4342C26.5981 19.9592 27.1124 19.7028 27.6987 19.6468C28.1367 19.5907 28.3628 19.8822 28.254 20.3207L28.2511 20.3221Z" fill="white"/>
<path d="M28.4447 22.3538C28.8276 20.0419 29.7163 19.6089 31.5501 19.6089C32.3668 19.6089 33.3995 19.6972 33.9336 19.8149C34.137 19.8584 34.5114 19.9803 34.438 20.5309L33.8531 24.6335C33.7965 25.0174 33.5719 25.2094 33.1876 25.2094H32.8401C32.4332 25.2094 32.2128 24.988 32.2085 24.5845V24.4654C32.2113 24.3393 32.1577 24.2832 32.0432 24.3869C31.7395 24.6615 31.156 25.3089 30.0144 25.3411C28.538 25.3803 28.1141 24.3617 28.4475 22.3524L28.4447 22.3538ZM32.0305 22.9955C32.0771 22.9171 32.1026 22.8624 32.1223 22.7349L32.3427 21.188C32.3611 21.0549 32.2905 20.9723 32.1562 20.9695H31.7112C30.9963 20.9695 30.6643 21.1082 30.4891 22.3272C30.3153 23.5462 30.3323 23.8208 30.8042 23.7816C31.3001 23.734 31.7197 23.3879 32.0319 22.9941L32.0305 22.9955Z" fill="white"/>
<path d="M35.0949 23.7998L35.9031 18.1055C35.9596 17.7244 36.1842 17.5324 36.5798 17.5324H37.3145C37.7398 17.5324 37.9531 17.7734 37.8952 18.1924L37.152 23.3556C37.0913 23.6793 37.1831 23.7802 37.5519 23.7886H37.6507C37.9263 23.7886 38.0944 23.9889 38.1212 24.3813L38.1396 24.5662C38.1664 24.9389 38.0195 25.215 37.6423 25.2724C37.3159 25.3326 36.95 25.3537 36.7409 25.3537C35.5993 25.3537 34.9692 24.761 35.0935 23.8012L35.0949 23.7998Z" fill="white"/>
<path d="M41.0119 24.5396L41.9133 18.1966C41.9698 17.8239 42.1718 17.6235 42.5491 17.5927C43.2569 17.5352 43.9068 17.5352 44.9537 17.5352C46.9246 17.5352 47.9857 18.0985 47.7455 19.8864C47.6127 20.8924 47.1224 21.4472 46.2083 21.635C46.0953 21.6574 46.0953 21.7051 46.197 21.7499C46.6364 21.9278 46.9077 22.2991 46.9783 22.9073L47.2326 24.5466C47.2849 24.9684 47.0744 25.2094 46.6463 25.2094H45.7817C45.3889 25.2094 45.1572 25.009 45.1219 24.6209L44.9142 22.8932C44.8788 22.4491 44.746 22.3608 44.3773 22.3608C44.0481 22.3608 43.7585 22.3524 43.5126 22.3496C43.4024 22.3496 43.3473 22.4042 43.336 22.5037L43.0351 24.6335C42.9772 25.0174 42.7539 25.2094 42.3696 25.2094H41.594C41.1687 25.2094 40.9554 24.9599 41.0133 24.5382L41.0119 24.5396ZM44.5595 20.8588C45.3126 20.856 45.5627 20.699 45.6743 19.9046C45.7675 19.2755 45.5923 19.0373 44.9283 19.0373C44.585 19.0373 44.2614 19.0373 43.9775 19.0401C43.8786 19.0401 43.822 19.0919 43.8008 19.1942L43.596 20.6836C43.5776 20.7929 43.6327 20.8588 43.7429 20.8588H44.561H44.5595Z" fill="white"/>
<path d="M54.0326 21.5678C53.8829 22.585 53.1821 22.8877 51.7325 22.9913L50.4567 23.0866C50.3225 23.0978 50.2349 23.1847 50.2773 23.3178C50.3593 23.7143 50.6545 23.7914 51.1674 23.7914C51.5305 23.7914 52.1578 23.7662 52.7385 23.7269C53.1454 23.6975 53.3771 23.8783 53.4223 24.2818L53.4336 24.3561C53.4717 24.7218 53.3276 24.9866 52.9674 25.0917C52.3386 25.2794 51.604 25.3425 50.9738 25.3425C48.6257 25.3425 47.9871 24.3182 48.1962 22.4099C48.4491 20.1442 49.4904 19.6089 51.4726 19.6089C53.637 19.6089 54.2135 20.3221 54.0326 21.5678ZM51.4344 20.9541C50.8297 20.9625 50.5881 21.1194 50.4257 21.8032C50.3875 21.9559 50.4695 22.0456 50.6122 22.0259L51.2889 21.9657C51.7876 21.9195 52.0518 21.841 52.1055 21.373C52.1394 21.0129 51.9953 20.9457 51.4344 20.9527V20.9541Z" fill="white"/>
<path d="M59.41 19.7561C59.7759 19.7967 59.9355 20.0377 59.8833 20.4006L59.8691 20.5099C59.8197 20.8588 59.612 21.0353 59.2574 21.0325C58.7389 21.0269 58.2203 21.0241 57.6623 21.0241C56.8725 21.0241 56.6676 21.0297 56.6394 21.2119C56.6111 21.3912 56.7609 21.4655 57.2059 21.6084L58.469 22.0204C59.3633 22.3076 59.7914 22.8176 59.6812 23.7073C59.5074 25.0945 58.5509 25.3299 56.9332 25.3299C56.2523 25.3299 55.6405 25.2991 54.8691 25.194C54.4975 25.1449 54.328 24.9151 54.3774 24.5522L54.3915 24.4401C54.441 24.0871 54.6487 23.9147 55.0033 23.9175C55.4272 23.9203 55.8708 23.9231 56.2734 23.9231C57.4772 23.9231 57.7174 23.8713 57.7513 23.6653C57.7739 23.4888 57.6326 23.4425 57.1353 23.2786L55.9061 22.8582C54.9256 22.5374 54.6063 21.9139 54.7278 21.0648C54.862 20.0924 55.495 19.602 57.3006 19.609C57.9392 19.6118 58.7685 19.6664 59.41 19.7561Z" fill="white"/>
<path d="M66.4445 22.6159C66.1393 24.8927 65.2323 25.3607 64.0511 25.3607C63.5241 25.3607 62.9816 25.3243 62.5012 25.2556C62.367 25.2374 62.2837 25.2991 62.2808 25.4406C62.2695 25.7222 62.2554 26.0052 62.206 26.3247L62.1127 26.8796C62.0477 27.2523 61.816 27.4372 61.436 27.4372H60.6744C60.2492 27.4372 60.0358 27.1962 60.0938 26.7773L61.0107 20.332C61.0601 19.9508 61.2834 19.7589 61.679 19.7589H62.0647C62.4631 19.7589 62.6835 19.9733 62.7005 20.3684L62.6948 20.4959C62.7033 20.594 62.757 20.6332 62.8205 20.5772C63.3179 20.119 64.0243 19.6524 64.8437 19.6524C66.2806 19.6524 66.7172 20.5477 66.4445 22.6173V22.6159ZM62.9364 21.7934C62.846 21.848 62.8078 21.9195 62.7965 22.0274L62.5422 23.8685C62.5238 24.0016 62.5945 24.0843 62.7372 24.0843C62.9138 24.0871 63.0749 24.0871 63.1907 24.0871C64.0229 24.0871 64.2306 23.9091 64.3987 22.6425C64.5287 21.6561 64.547 21.2679 64.0497 21.2918C63.6527 21.3072 63.3207 21.4851 62.9364 21.7934Z" fill="white"/>
<path d="M73.1258 22.5696C72.8305 24.6223 71.9828 25.3453 69.8819 25.3453C67.781 25.3453 66.8881 24.548 67.1918 22.4183C67.4843 20.3446 68.3292 19.6089 70.4569 19.6089C72.5847 19.6089 73.4309 20.4174 73.1244 22.5696H73.1258ZM69.2885 22.5696C69.1288 23.6877 69.239 23.9441 69.9469 23.9441C70.6547 23.9441 70.8666 23.6513 71.0503 22.4183C71.2199 21.2735 71.0998 21.0087 70.4272 21.0087C69.701 21.0087 69.4778 21.2833 69.2899 22.5696H69.2885Z" fill="white"/>
<path d="M79.8848 21.167L79.3889 24.6377C79.3395 25.0188 79.1162 25.2108 78.7206 25.2108H77.9704C77.5452 25.2108 77.3318 24.9698 77.3897 24.5508L77.7825 21.792C77.8362 21.3982 77.7712 21.2665 77.4505 21.2903C77.1058 21.3058 76.7483 21.4739 76.2298 21.8578C76.169 21.9012 76.1479 21.9503 76.1366 22.0133L75.7593 24.6391C75.7099 25.0202 75.4895 25.2122 75.0939 25.2122H74.3479C73.9226 25.2122 73.7008 24.9712 73.7672 24.5522L74.3564 20.3348C74.4058 19.9536 74.6291 19.7617 75.0247 19.7617H75.3962C75.7947 19.7617 76.0193 19.9761 76.0391 20.3712L76.0334 20.5547C76.0377 20.6696 76.1295 20.685 76.2439 20.5842C76.9588 19.9634 77.7528 19.6118 78.4918 19.6118C79.3932 19.6118 80.0388 20.1358 79.8862 21.1698L79.8848 21.167Z" fill="white"/>
<path d="M85.4358 19.7561C85.8018 19.7967 85.9614 20.0377 85.9091 20.4006L85.895 20.5099C85.8456 20.8588 85.6379 21.0353 85.2832 21.0325C84.7647 21.0269 84.2462 21.0241 83.6881 21.0241C82.8984 21.0241 82.6935 21.0297 82.6652 21.2119C82.637 21.3912 82.7868 21.4655 83.2318 21.6084L84.4949 22.0204C85.3892 22.3076 85.8173 22.8176 85.7071 23.7073C85.5333 25.0945 84.5768 25.3299 82.9591 25.3299C82.2781 25.3299 81.6664 25.2991 80.895 25.194C80.5234 25.1449 80.3538 24.9151 80.4033 24.5522L80.4174 24.4401C80.4669 24.0871 80.6746 23.9147 81.0292 23.9175C81.453 23.9203 81.8967 23.9231 82.2993 23.9231C83.5031 23.9231 83.7432 23.8713 83.7772 23.6653C83.7998 23.4888 83.6585 23.4425 83.1612 23.2786L81.932 22.8582C80.9515 22.5374 80.6322 21.9139 80.7537 21.0648C80.8879 20.0924 81.5209 19.602 83.3265 19.609C83.9651 19.6118 84.7944 19.6664 85.4358 19.7561Z" fill="white"/>
<path d="M92.3686 21.5678C92.2189 22.585 91.5181 22.8877 90.0685 22.9913L88.7927 23.0866C88.6585 23.0978 88.5709 23.1847 88.6133 23.3178C88.6953 23.7143 88.9905 23.7914 89.5034 23.7914C89.8665 23.7914 90.4938 23.7662 91.0745 23.7269C91.4814 23.6975 91.7131 23.8783 91.7583 24.2818L91.7696 24.3561C91.8077 24.7218 91.6636 24.9866 91.3034 25.0917C90.6746 25.2794 89.94 25.3425 89.3098 25.3425C86.9617 25.3425 86.3231 24.3182 86.5322 22.4099C86.7851 20.1442 87.8264 19.6089 89.8086 19.6089C91.973 19.6089 92.5495 20.3221 92.3686 21.5678ZM89.7704 20.9541C89.1657 20.9625 88.9241 21.1194 88.7617 21.8032C88.7235 21.9559 88.8055 22.0456 88.9482 22.0259L89.6249 21.9657C90.1236 21.9195 90.3878 21.841 90.4415 21.373C90.4754 21.0129 90.3313 20.9457 89.7704 20.9527V20.9541Z" fill="white"/>
<path d="M51.4302 29.6861C58.048 29.6861 63.7233 32.4898 68.1102 38.0454C73.3264 44.649 74.1388 52.0443 70.8638 59.7773C68.041 66.444 64.1783 72.5601 60.2492 78.6201C58.274 81.6662 56.2296 84.6675 54.1132 87.7682C53.3573 88.8766 52.1578 89.43 50.9569 89.43C49.756 89.43 48.5523 88.8737 47.7964 87.7626C45.1911 83.9291 42.6579 80.2118 40.3126 76.381C37.0998 71.1337 33.959 65.8023 31.3269 60.2565C24.89 46.6933 33.774 32.3119 47.1352 30.0574C48.606 29.8094 50.0386 29.6861 51.4288 29.6861M50.9781 67.5411C60.1333 67.5411 67.555 60.1809 67.555 51.1014C67.555 42.0219 60.1333 34.6616 50.9781 34.6616C41.8229 34.6616 34.4013 42.0219 34.4013 51.1014C34.4013 60.1809 41.8229 67.5411 50.9781 67.5411ZM51.4288 27.9431C49.9439 27.9431 48.3997 28.0762 46.8399 28.3396C45.023 28.6464 43.2442 29.1677 41.5531 29.8907C39.9071 30.594 38.3388 31.4894 36.8921 32.5529C34.0424 34.6476 31.6702 37.3967 30.0342 40.5058C29.2444 42.0065 28.6227 43.5926 28.1876 45.2165C27.7411 46.8811 27.4896 48.5961 27.4374 50.3139C27.3272 53.9583 28.1014 57.5523 29.7361 60.9991C32.4515 66.7229 35.7025 72.2098 38.8107 77.2862C41.1024 81.0301 43.5268 84.5974 46.0925 88.3721L46.3398 88.7364C47.3768 90.2623 49.1033 91.173 50.9583 91.173C52.8134 91.173 54.5342 90.2651 55.5713 88.7448C57.6001 85.7716 59.6982 82.696 61.7298 79.5617C65.7776 73.3167 69.646 67.1572 72.4858 60.4513C74.2476 56.2913 74.8975 52.1957 74.4171 48.2766C73.9283 44.2917 72.2724 40.4862 69.4948 36.9693C67.1565 34.0087 64.4326 31.7402 61.3978 30.2241C58.3644 28.7095 55.0104 27.9417 51.4302 27.9417L51.4288 27.9431ZM50.9781 65.7981C42.8062 65.7981 36.1588 59.2057 36.1588 51.1014C36.1588 42.9971 42.8062 36.4046 50.9781 36.4046C59.15 36.4046 65.7974 42.9971 65.7974 51.1014C65.7974 59.2057 59.15 65.7981 50.9781 65.7981Z" fill="black"/>
<path d="M68.1116 38.0454C62.8021 31.3227 55.608 28.6296 47.1366 30.0574C33.7753 32.3105 24.8928 46.6919 31.3283 60.2565C33.9604 65.8037 37.1026 71.1337 40.314 76.3811C42.6593 80.2118 45.1925 83.9291 47.7978 87.7626C49.3067 89.9835 52.6014 89.9863 54.1146 87.7683C56.231 84.6661 58.2754 81.6648 60.2506 78.6201C64.1797 72.5601 68.041 66.444 70.8652 59.7773C74.1402 52.0444 73.3264 44.6491 68.1102 38.0454H68.1116ZM50.9795 67.5412C41.8243 67.5412 34.4026 60.1809 34.4026 51.1014C34.4026 42.0219 41.8243 34.6616 50.9795 34.6616C60.1347 34.6616 67.5564 42.0219 67.5564 51.1014C67.5564 60.1809 60.1347 67.5412 50.9795 67.5412Z" fill="white"/>
<path d="M50.9823 65.5851C59.2003 65.5851 65.8624 58.9782 65.8624 50.8282C65.8624 42.6781 59.2003 36.0712 50.9823 36.0712C42.7643 36.0712 36.1023 42.6781 36.1023 50.8282C36.1023 58.9782 42.7643 65.5851 50.9823 65.5851Z" fill="#B86360"/>
<path d="M50.9795 59.2351C59.1312 59.2351 65.7395 53.9461 65.7395 47.4219C65.7395 40.8977 59.1312 35.6088 50.9795 35.6088C42.8279 35.6088 36.2196 40.8977 36.2196 47.4219C36.2196 53.9461 42.8279 59.2351 50.9795 59.2351Z" fill="black"/>
<path d="M50.9824 60.6306C58.9406 60.6306 65.3919 55.1328 65.3919 48.3509C65.3919 41.569 58.9406 36.0712 50.9824 36.0712C43.0242 36.0712 36.5728 41.569 36.5728 48.3509C36.5728 55.1328 43.0242 60.6306 50.9824 60.6306Z" fill="#E97873"/>
<path d="M50.9823 36.0711C59.2008 36.0711 65.8624 42.6776 65.8624 50.8281C65.8624 58.9787 59.2008 65.5851 50.9823 65.5851C42.7639 65.5851 36.1023 58.9787 36.1023 50.8281C36.1023 42.6776 42.7639 36.0711 50.9823 36.0711ZM50.9823 34.5453C48.767 34.5453 46.6167 34.9754 44.5907 35.8259C42.6353 36.6456 40.8791 37.8198 39.3716 39.3148C37.8641 40.8099 36.6802 42.5515 35.8537 44.4907C34.9975 46.4986 34.5623 48.6311 34.5623 50.8295C34.5623 53.028 34.9961 55.1591 35.8537 57.1684C36.6802 59.1076 37.8641 60.8492 39.3716 62.3442C40.8791 63.8393 42.6353 65.0134 44.5907 65.8331C46.6153 66.6822 48.7656 67.1138 50.9823 67.1138C53.1991 67.1138 55.348 66.6836 57.374 65.8331C59.3294 65.0134 61.0856 63.8393 62.5931 62.3442C64.1006 60.8492 65.2845 59.1076 66.111 57.1684C66.9672 55.1605 67.4024 53.028 67.4024 50.8295C67.4024 48.6311 66.9686 46.5 66.111 44.4907C65.2845 42.5515 64.1006 40.8099 62.5931 39.3148C61.0856 37.8198 59.3294 36.6456 57.374 35.8259C55.3494 34.9768 53.1991 34.5453 50.9823 34.5453Z" fill="black"/>
<path d="M50.9824 61.0299C47.0377 61.0299 43.3262 59.7185 40.5316 57.3365C37.72 54.9405 36.1716 51.7487 36.1716 48.3509C36.1716 44.9531 37.72 41.7612 40.5316 39.3653C43.3262 36.9833 47.0377 35.6718 50.9824 35.6718C54.927 35.6718 58.6386 36.9833 61.4332 39.3653C64.2447 41.7612 65.7932 44.9531 65.7932 48.3509C65.7932 51.7487 64.2447 54.9405 61.4332 57.3365C58.6386 59.7185 54.927 61.0299 50.9824 61.0299ZM50.9824 36.4719C43.2598 36.4719 36.9755 41.8005 36.9755 48.3509C36.9755 54.9013 43.2584 60.2299 50.9824 60.2299C58.7064 60.2299 64.9893 54.9013 64.9893 48.3509C64.9893 41.8005 58.7064 36.4719 50.9824 36.4719Z" fill="black"/>
<path d="M58.7614 50.2256L58.3291 49.1734L58.3093 49.1622C58.2853 49.1257 58.2358 49.0907 58.161 49.0473C57.4955 48.6661 56.8286 48.2836 56.1632 47.9025C56.9756 47.4373 57.7894 46.9721 58.6018 46.5056C58.8052 46.3893 58.8179 46.3388 58.6993 46.1357C58.5749 45.9227 58.452 45.7111 58.3277 45.4981C58.3277 45.4533 58.3037 45.3972 58.257 45.3174C57.6368 44.2525 57.0166 43.1876 56.3963 42.1227C56.2904 41.942 56.2367 41.928 56.053 42.0331C55.1191 42.5669 54.1852 43.1021 53.2513 43.636C53.2429 43.6416 53.2344 43.6458 53.2245 43.65C53.2245 42.5921 53.2245 41.3003 53.2245 40.3573C53.2245 40.1345 53.1821 40.0925 52.9589 40.0925C52.9207 40.0925 52.884 40.0925 52.8459 40.0925C51.6054 40.0925 50.3649 40.0925 49.123 40.0925C49.0863 40.0925 49.0481 40.0925 49.0114 40.0925C48.7755 40.0925 48.7373 40.1303 48.7373 40.3629C48.7373 41.3059 48.7373 42.5949 48.7373 43.6528C48.7147 43.6402 48.6949 43.629 48.6737 43.6178C47.7483 43.0867 46.8229 42.5557 45.8989 42.0247C45.7322 41.9294 45.6714 41.9462 45.5754 42.1115C44.9523 43.1806 44.3307 44.2497 43.709 45.3188C43.6624 45.3986 43.6384 45.4533 43.6384 45.4981C43.514 45.7111 43.3897 45.9241 43.2668 46.1371C43.1495 46.3402 43.1622 46.3921 43.3643 46.5084C44.1767 46.9735 44.989 47.4387 45.8014 47.9039C45.1388 48.2822 44.4776 48.6605 43.815 49.0389C43.7302 49.0879 43.6779 49.1229 43.6539 49.1622L43.637 49.172L43.1905 50.2495H43.1933C43.1806 50.3027 43.2103 50.3672 43.271 50.4736C43.9238 51.5946 44.5765 52.7155 45.2292 53.8364C45.3522 54.048 45.403 54.062 45.6121 53.9415C46.5983 53.3768 47.7102 52.7211 48.6963 52.1564C48.7444 52.1284 48.7952 52.1032 48.8659 52.0654C48.8659 52.1522 48.8687 52.2965 48.8687 52.354C48.8687 52.3638 48.8687 52.3736 48.8687 52.3834C48.8687 53.0434 48.8687 53.7047 48.8687 54.3646C48.8687 54.3997 48.8687 54.4305 48.8715 54.4571C48.8715 54.8831 48.8729 55.3076 48.8744 55.7336C48.8744 55.9704 48.9097 56.0068 49.1456 56.0068C50.4624 56.0068 51.5192 56.0068 52.836 56.0068C53.0691 56.0068 53.1072 55.969 53.1072 55.7336C53.1072 54.6042 53.103 53.4679 53.103 52.3386C53.103 52.3386 53.103 52.3358 53.103 52.3344C53.103 52.2419 53.103 52.148 53.103 52.0555C53.1835 52.099 53.2386 52.127 53.2909 52.1578C54.2643 52.7155 55.372 53.3768 56.3455 53.9345C56.5715 54.0648 56.6153 54.0522 56.7481 53.8238C57.3994 52.7071 58.0493 51.5904 58.7007 50.4736C58.7699 50.3545 58.7939 50.2845 58.7628 50.2256H58.7614Z" fill="#B2B2B2"/>
<path d="M58.1596 49.0473C57.2384 48.519 56.3158 47.9908 55.3946 47.464C55.3395 47.4331 55.2858 47.3995 55.2166 47.3589C55.2816 47.3196 55.3268 47.2916 55.3748 47.2636C56.3045 46.7312 57.2341 46.1987 58.1638 45.6663C58.3559 45.557 58.3687 45.5093 58.2556 45.3174C57.6354 44.2525 57.0152 43.1876 56.3949 42.1227C56.289 41.942 56.2353 41.928 56.0516 42.0331C55.1177 42.5669 54.1838 43.1022 53.2499 43.636C53.2075 43.6598 53.1623 43.6822 53.0945 43.7173V43.5379C53.0945 42.473 53.0945 41.4082 53.0945 40.3433C53.0945 40.1331 53.055 40.0939 52.8444 40.0939C51.604 40.0939 50.3635 40.0939 49.1216 40.0939C48.8984 40.0939 48.8631 40.1289 48.8631 40.3489C48.8631 41.4138 48.8631 42.4786 48.8631 43.5435V43.7257C48.7811 43.6808 48.726 43.6514 48.6709 43.6192C47.7455 43.0881 46.8201 42.5571 45.8961 42.0261C45.7294 41.9308 45.6686 41.9476 45.5726 42.1129C44.9495 43.182 44.3279 44.2511 43.7062 45.3202C43.5946 45.5107 43.6087 45.5612 43.798 45.6705C44.7192 46.1987 45.6418 46.7269 46.563 47.2538C46.6181 47.286 46.6732 47.3182 46.7452 47.3603C46.6845 47.3967 46.6378 47.4261 46.5912 47.4528C45.6658 47.9824 44.739 48.512 43.8136 49.0403C43.6031 49.1608 43.5918 49.2014 43.7119 49.4074C44.3279 50.4638 44.9424 51.5217 45.5584 52.5782C45.6743 52.7771 45.7223 52.7912 45.9201 52.6777C46.8498 52.1452 47.7794 51.6128 48.7091 51.0803C48.7543 51.0537 48.8023 51.0299 48.8687 50.9949C48.8687 51.0761 48.8687 51.1308 48.8687 51.1854C48.8687 52.2461 48.8687 53.3068 48.8687 54.3675C48.8687 54.5916 48.9012 54.6239 49.1244 54.6239C50.3649 54.6239 51.6054 54.6239 52.8473 54.6239C53.0677 54.6239 53.103 54.5874 53.103 54.3661C53.103 53.3012 53.103 52.2363 53.103 51.1714V50.9949C53.1821 51.0369 53.2344 51.0649 53.2853 51.093C54.2036 51.6184 55.1205 52.1438 56.0375 52.6693C56.2508 52.7912 56.2918 52.7799 56.4175 52.5642C57.0307 51.5119 57.6439 50.4582 58.2585 49.406C58.3729 49.2112 58.3588 49.158 58.161 49.0459L58.1596 49.0473Z" fill="white"/>
<path d="M51.0036 40.0925C51.6167 40.0925 52.2313 40.0925 52.8445 40.0925H52.8572C52.8798 40.0925 52.9024 40.0925 52.925 40.0925C52.9363 40.0925 52.9462 40.0925 52.9575 40.0925C53.1807 40.0925 53.2231 40.1345 53.2231 40.3573C53.2231 41.3003 53.2231 42.5922 53.2231 43.65C53.2316 43.6458 53.2415 43.6402 53.25 43.636C54.1839 43.1022 55.1178 42.5669 56.0516 42.0331C56.1265 41.9897 56.1802 41.9672 56.224 41.9672C56.2876 41.9672 56.3328 42.0163 56.395 42.1228C57.0152 43.1876 57.6354 44.2525 58.2557 45.3174C58.3023 45.3987 58.3277 45.4533 58.3263 45.4982C58.4506 45.7111 58.5736 45.9227 58.6979 46.1357C58.8166 46.3389 58.8024 46.3893 58.6004 46.5056C57.788 46.9708 56.9756 47.436 56.1618 47.9025C56.8273 48.2837 57.4941 48.6662 58.1596 49.0473C58.2359 49.0907 58.2839 49.1257 58.3079 49.1622L58.3277 49.1734L58.76 50.2257C58.7925 50.2859 58.7685 50.3546 58.6979 50.4737C58.0466 51.5904 57.3967 52.7071 56.7453 53.8238C56.6662 53.9583 56.6196 54.0186 56.5475 54.0186C56.4967 54.0186 56.4345 53.9892 56.3413 53.9359C55.3678 53.3783 54.2602 52.7169 53.2867 52.1593C53.233 52.1284 53.1793 52.1004 53.0988 52.057C53.0988 52.1494 53.0988 52.2433 53.0988 52.3358C53.0988 52.3358 53.0988 52.3386 53.0988 52.34C53.0988 53.4693 53.103 54.6057 53.103 55.735C53.103 55.9704 53.0649 56.0082 52.8318 56.0082C52.1677 56.0082 51.5687 56.0082 50.9697 56.0082C50.3706 56.0082 49.7942 56.0082 49.1414 56.0082C48.9055 56.0082 48.8702 55.9732 48.8702 55.735C48.8702 55.3105 48.8702 54.8845 48.8673 54.4586C48.8645 54.4319 48.8645 54.4011 48.8645 54.3661C48.8645 53.7061 48.8645 53.0448 48.8645 52.3848C48.8645 52.375 48.8645 52.3652 48.8645 52.3554C48.8645 52.298 48.8617 52.1537 48.8617 52.0668C48.7911 52.1046 48.7416 52.1298 48.6922 52.1579C47.706 52.7225 46.5941 53.3783 45.6079 53.9429C45.5217 53.992 45.4624 54.0186 45.4144 54.0186C45.3437 54.0186 45.2971 53.9625 45.2236 53.8364C44.5709 52.7155 43.9182 51.5946 43.2654 50.4737C43.2033 50.3672 43.175 50.3027 43.1877 50.2495H43.1849L43.6314 49.172L43.6483 49.1622C43.6723 49.1229 43.7246 49.0879 43.8094 49.0389C44.472 48.6606 45.1332 48.2823 45.7958 47.9039C44.9834 47.4388 44.1711 46.9736 43.3587 46.5084C43.1566 46.3921 43.1425 46.3403 43.2612 46.1371C43.3855 45.9241 43.5084 45.7111 43.6328 45.4982C43.6328 45.4533 43.6568 45.3987 43.7034 45.3188C44.3251 44.2497 44.9481 43.1806 45.5698 42.1116C45.6277 42.0121 45.6729 41.9658 45.7351 41.9658C45.7775 41.9658 45.8269 41.9855 45.8933 42.0247C46.8187 42.5557 47.7441 43.0868 48.6681 43.6178C48.6879 43.629 48.7091 43.6416 48.7317 43.6528C48.7317 42.595 48.7317 41.3045 48.7317 40.3629C48.7317 40.1303 48.7699 40.0925 49.0058 40.0925C49.0129 40.0925 49.0185 40.0925 49.0256 40.0925C49.0468 40.0925 49.0694 40.0925 49.0906 40.0925C49.099 40.0925 49.1089 40.0925 49.1174 40.0925C49.7447 40.0925 50.372 40.0925 50.9979 40.0925M50.9979 39.3653H49.1174C49.1174 39.3653 49.116 39.3653 49.1146 39.3653H49.0892H49.0567H49.0242H49.0044C48.8603 39.3653 48.524 39.3653 48.2612 39.6245C47.997 39.8851 47.997 40.2186 47.997 40.3615C47.997 40.95 47.997 41.6744 47.997 42.3932L47.9052 42.3399C47.3556 42.0247 46.8074 41.7094 46.2578 41.3942C46.1406 41.3269 45.9597 41.2386 45.7337 41.2386C45.5034 41.2386 45.1784 41.3269 44.934 41.7473C44.3109 42.8163 43.6893 43.8854 43.0676 44.9545C43.0196 45.0358 42.9716 45.1282 42.9391 45.2347L42.8359 45.4113L42.6254 45.7728C42.5534 45.8961 42.3866 46.1833 42.4799 46.5378C42.5746 46.8979 42.867 47.0646 42.9913 47.1361L44.3293 47.9025L43.7486 48.2346L43.4434 48.4098C43.3403 48.4686 43.2344 48.5373 43.1411 48.6311C43.0592 48.704 42.9956 48.7937 42.9532 48.896L42.5067 49.9735C42.4672 50.0687 42.4488 50.1696 42.4516 50.2691C42.4502 50.5269 42.5675 50.7287 42.6311 50.8366C43.1609 51.7459 43.6907 52.6553 44.2205 53.5646L44.5907 54.1993C44.6698 54.3339 44.9086 54.7444 45.4158 54.7444C45.6418 54.7444 45.8255 54.6575 45.9753 54.5706C46.4698 54.2876 47.0052 53.9766 47.5209 53.6767C47.7229 53.559 47.9278 53.4399 48.1313 53.3222V54.3661C48.1313 54.4095 48.1313 54.4487 48.1341 54.4852V54.5931C48.1341 54.9742 48.1355 55.3539 48.1355 55.7336C48.1355 55.8751 48.1355 56.2086 48.3926 56.4678C48.6554 56.7326 48.9931 56.7326 49.1386 56.7326H50.9668H52.8289C52.9731 56.7326 53.3107 56.7326 53.5735 56.4678C53.8321 56.2072 53.8321 55.8751 53.8321 55.7336C53.8321 55.1577 53.8321 54.5805 53.8307 54.0032C53.8307 53.7734 53.8307 53.5436 53.8307 53.3138C54.0355 53.4343 54.2432 53.5548 54.4466 53.6739C54.9567 53.9738 55.4851 54.282 55.9725 54.5622C56.1251 54.6491 56.3074 54.743 56.5447 54.743C57.0519 54.743 57.2879 54.3381 57.3769 54.1853C58.0282 53.0686 58.6781 51.9519 59.3294 50.8352C59.4015 50.7105 59.6176 50.3406 59.4269 49.9286L59.0031 48.8974C58.9578 48.7895 58.8886 48.6928 58.7996 48.6185C58.7106 48.5303 58.6131 48.4672 58.5227 48.4168L57.6227 47.9011L58.9621 47.1333C59.0864 47.0618 59.3789 46.8951 59.4735 46.5364C59.5668 46.1819 59.4001 45.8933 59.328 45.77L59.1246 45.4197L59.0158 45.2333C58.9833 45.1269 58.9352 45.0344 58.8872 44.9517C58.267 43.8868 57.6467 42.8219 57.0265 41.7571C56.8259 41.4124 56.5546 41.2386 56.2212 41.2386C55.9965 41.2386 55.8157 41.3255 55.6829 41.4012L54.5088 42.0737C54.3237 42.1802 54.1387 42.2853 53.9536 42.3918C53.9536 41.6716 53.9536 40.9458 53.9536 40.3559C53.9536 40.2284 53.9536 39.8893 53.6922 39.6273C53.428 39.3639 53.0847 39.3639 52.9561 39.3639H52.9236H52.8897H52.8459C52.8459 39.3639 52.8431 39.3639 52.8417 39.3639C52.2285 39.3639 51.6139 39.3639 51.0007 39.3639L50.9979 39.3653Z" fill="black"/>
</g>
<defs>
<linearGradient id="paint0_linear_74_396" x1="55.5911" y1="64.502" x2="55.5911" y2="101.724" gradientUnits="userSpaceOnUse">
<stop offset="0.02" stop-color="#328B6B"/>
<stop offset="0.34" stop-color="#348D6D"/>
<stop offset="0.57" stop-color="#3D9576"/>
<stop offset="0.76" stop-color="#4DA384"/>
<stop offset="0.94" stop-color="#63B698"/>
<stop offset="1" stop-color="#6CBEA1"/>
</linearGradient>
<linearGradient id="paint1_linear_74_396" x1="45.9555" y1="65.8107" x2="45.9555" y2="103.031" gradientUnits="userSpaceOnUse">
<stop stop-color="#74C6AA"/>
<stop offset="1" stop-color="#4ABB8F"/>
</linearGradient>
<linearGradient id="paint2_linear_74_396" x1="20.7603" y1="10.4734" x2="81.2397" y2="10.4734" gradientUnits="userSpaceOnUse">
<stop stop-color="#74C6AA"/>
<stop offset="1" stop-color="#4ABB8F"/>
</linearGradient>
<clipPath id="clip0_74_396">
<rect width="102" height="102" fill="white" transform="translate(0 0.5)"/>
</clipPath>
</defs>
</svg>
