<svg width="14" height="14" viewBox="0 0 14 14" fill="none" xmlns="http://www.w3.org/2000/svg">
<path fill-rule="evenodd" clip-rule="evenodd" d="M9.33366 4.08333C9.33366 5.37017 8.28716 6.41667 7.00033 6.41667C5.71349 6.41667 4.66699 5.37017 4.66699 4.08333C4.66699 2.7965 5.71349 1.75 7.00033 1.75C8.28716 1.75 9.33366 2.7965 9.33366 4.08333ZM11.0837 11.6667C11.0837 11.9887 10.8229 12.25 10.5003 12.25H3.50033C3.17774 12.25 2.91699 11.9887 2.91699 11.6667C2.91699 9.415 4.74924 7.58333 7.00033 7.58333C9.25141 7.58333 11.0837 9.415 11.0837 11.6667Z" fill="#606160"/>
<mask id="mask0_8_2326" style="mask-type:luminance" maskUnits="userSpaceOnUse" x="2" y="1" width="10" height="12">
<path fill-rule="evenodd" clip-rule="evenodd" d="M9.33366 4.08333C9.33366 5.37017 8.28716 6.41667 7.00033 6.41667C5.71349 6.41667 4.66699 5.37017 4.66699 4.08333C4.66699 2.7965 5.71349 1.75 7.00033 1.75C8.28716 1.75 9.33366 2.7965 9.33366 4.08333ZM11.0837 11.6667C11.0837 11.9887 10.8229 12.25 10.5003 12.25H3.50033C3.17774 12.25 2.91699 11.9887 2.91699 11.6667C2.91699 9.415 4.74924 7.58333 7.00033 7.58333C9.25141 7.58333 11.0837 9.415 11.0837 11.6667Z" fill="white"/>
</mask>
<g mask="url(#mask0_8_2326)">
</g>
</svg>
