<svg width="24" height="25" viewBox="0 0 24 25" fill="none" xmlns="http://www.w3.org/2000/svg">
<path fill-rule="evenodd" clip-rule="evenodd" d="M15.595 7.5C15.595 9.706 13.7859 11.5 11.5613 11.5C9.33665 11.5 7.52751 9.706 7.52751 7.5C7.52751 5.294 9.33665 3.5 11.5613 3.5C13.7859 3.5 15.595 5.294 15.595 7.5ZM18.6203 20.5C18.6203 21.052 18.1696 21.5 17.6119 21.5H5.51064C4.95297 21.5 4.5022 21.052 4.5022 20.5C4.5022 16.64 7.6697 13.5 11.5613 13.5C15.4528 13.5 18.6203 16.64 18.6203 20.5Z" fill="#CDCECE"/>
<mask id="mask0_2_173" style="mask-type:luminance" maskUnits="userSpaceOnUse" x="4" y="3" width="15" height="19">
<path fill-rule="evenodd" clip-rule="evenodd" d="M15.595 7.5C15.595 9.706 13.7859 11.5 11.5613 11.5C9.33665 11.5 7.52751 9.706 7.52751 7.5C7.52751 5.294 9.33665 3.5 11.5613 3.5C13.7859 3.5 15.595 5.294 15.595 7.5ZM18.6203 20.5C18.6203 21.052 18.1696 21.5 17.6119 21.5H5.51064C4.95297 21.5 4.5022 21.052 4.5022 20.5C4.5022 16.64 7.6697 13.5 11.5613 13.5C15.4528 13.5 18.6203 16.64 18.6203 20.5Z" fill="white"/>
</mask>
<g mask="url(#mask0_2_173)">
</g>
</svg>
