<svg width="20" height="20" viewBox="0 0 20 20" fill="none" xmlns="http://www.w3.org/2000/svg">
<path d="M4.1665 8.70372C4.1665 9.29954 4.28386 9.88951 4.51187 10.44C4.73987 10.9904 5.07407 11.4906 5.49537 11.9119C5.91667 12.3332 6.41683 12.6674 6.96729 12.8954C7.51775 13.1234 8.10773 13.2408 8.70354 13.2408C9.29935 13.2408 9.88933 13.1234 10.4398 12.8954C10.9902 12.6674 11.4904 12.3332 11.9117 11.9119C12.333 11.4906 12.6672 10.9904 12.8952 10.44C13.1232 9.88951 13.2406 9.29954 13.2406 8.70372C13.2406 8.10791 13.1232 7.51793 12.8952 6.96748C12.6672 6.41702 12.333 5.91686 11.9117 5.49555C11.4904 5.07425 10.9902 4.74006 10.4398 4.51205C9.88933 4.28404 9.29935 4.16669 8.70354 4.16669C8.10773 4.16669 7.51775 4.28404 6.96729 4.51205C6.41683 4.74006 5.91667 5.07425 5.49537 5.49555C5.07407 5.91686 4.73987 6.41702 4.51187 6.96748C4.28386 7.51793 4.1665 8.10791 4.1665 8.70372Z" stroke="#CDCECE" stroke-linecap="round" stroke-linejoin="round"/>
<path d="M15.8332 15.8333L11.9443 11.9445" stroke="#CDCECE" stroke-linecap="round" stroke-linejoin="round"/>
</svg>
