<svg width="14" height="14" viewBox="0 0 14 14" fill="none" xmlns="http://www.w3.org/2000/svg">
<path fill-rule="evenodd" clip-rule="evenodd" d="M8.05 1.98337C8.24324 1.98337 8.40004 1.82657 8.40004 1.63332V0.933357C8.40004 0.739996 8.24324 0.583313 8.05 0.583313H5.95C5.75676 0.583313 5.59996 0.739996 5.59996 0.933357V1.63332C5.59996 1.82657 5.75676 1.98337 5.95 1.98337H6.30004V2.37958C5.36359 2.50439 4.50508 2.876 3.79234 3.42689L3.3352 2.96975C3.19856 2.83311 2.97697 2.83311 2.8402 2.96975L2.34532 3.46475C2.20856 3.60151 2.20856 3.82311 2.34532 3.95976L2.80786 4.42242C2.14387 5.3017 1.75 6.3966 1.75 7.58326C1.75 10.4827 4.10056 12.8333 7 12.8333C9.89944 12.8333 12.25 10.4827 12.25 7.58326C12.25 6.38583 11.8491 5.28214 11.1743 4.39902L11.6133 3.95991C11.7501 3.82315 11.7501 3.60156 11.6133 3.4649L11.1185 2.9699C10.9818 2.83326 10.7601 2.83326 10.6235 2.9699L10.1843 3.40901C9.4762 2.86796 8.62621 2.50303 7.69999 2.37964V1.98343L8.05 1.98337ZM6.64996 8.28344C6.45672 8.28344 6.30004 8.12664 6.30004 7.93339V5.1334C6.30004 4.94004 6.45672 4.78336 6.64996 4.78336H7.35004C7.54328 4.78336 7.69996 4.94004 7.69996 5.1334V6.88338H8.74996C8.94332 6.88338 9.1 7.04006 9.1 7.23342V7.93339C9.1 8.12664 8.94332 8.28344 8.74996 8.28344H6.64996Z" fill="#606160"/>
</svg>
